<svg width="745" height="506" viewBox="0 0 745 506" fill="none" xmlns="http://www.w3.org/2000/svg">
<g opacity="0.28">
<path d="M480.676 431.483C368.289 319.154 185.387 319.144 72.9694 431.483L0 358.551C152.633 205.987 401.002 206.007 553.635 358.551L480.666 431.483H480.676Z" fill="#F5F5F5"/>
<path d="M467.497 604C367.241 604 266.995 565.859 190.674 489.587L263.643 416.655C376.04 528.994 558.943 529.004 671.35 416.655L744.319 489.587C667.998 565.869 567.752 604 467.507 604H467.497Z" fill="#F5F5F5"/>
<path d="M409.579 207.214C475.947 207.214 529.748 153.44 529.748 87.1071C529.748 20.7739 475.947 -33 409.579 -33C343.212 -33 289.41 20.7739 289.41 87.1071C289.41 153.44 343.212 207.214 409.579 207.214Z" fill="#F5F5F5"/>
</g>
</svg>
