<svg width="35" height="38" viewBox="0 0 35 38" fill="none" xmlns="http://www.w3.org/2000/svg">
<path fill-rule="evenodd" clip-rule="evenodd" d="M6 6.42315C5.99986 5.10585 6.41186 3.82054 7.17985 2.74235C7.94785 1.66416 9.0345 0.845531 10.2917 0.398001C11.549 -0.0495292 12.9157 -0.104193 14.2056 0.241458C15.4955 0.587109 16.6459 1.31626 17.5 2.32957C18.5548 1.06941 20.0583 0.253997 21.703 0.050109C23.3477 -0.153779 25.0093 0.269266 26.3479 1.23272C27.6866 2.19617 28.6011 3.62722 28.9045 5.23318C29.2079 6.83913 28.8772 8.49863 27.98 9.87224H29.5C30.9587 9.87224 32.3576 10.4433 33.3891 11.4597C34.4205 12.4762 35 13.8548 35 15.2922V19.2341C35.0004 19.988 34.7502 20.7214 34.2875 21.3219C33.8248 21.9224 33.1751 22.3569 32.438 22.559C32.726 26.1579 32.558 29.7824 31.938 33.3458C31.7574 34.3811 31.2405 35.3307 30.465 36.0516C29.6895 36.7724 28.6974 37.2256 27.638 37.3428L25.808 37.5438C20.2859 38.1521 14.7121 38.1521 9.19 37.5438L7.362 37.3428C6.3026 37.2256 5.31048 36.7724 4.53498 36.0516C3.75948 35.3307 3.24256 34.3811 3.062 33.3458C2.43989 29.7847 2.27192 26.1611 2.562 22.559C1.82487 22.3569 1.17524 21.9224 0.712541 21.3219C0.249839 20.7214 -0.000443973 19.988 5.91218e-07 19.2341V15.2922C5.91218e-07 13.8548 0.579463 12.4762 1.61091 11.4597C2.64236 10.4433 4.04131 9.87224 5.5 9.87224H7.02C6.35207 8.84243 5.99805 7.64535 6 6.42315ZM16 6.42315C16 5.50839 15.6313 4.6311 14.9749 3.98427C14.3185 3.33744 13.4283 2.97406 12.5 2.97406C11.5717 2.97406 10.6815 3.33744 10.0251 3.98427C9.36875 4.6311 9 5.50839 9 6.42315C9 7.3379 9.36875 8.21519 10.0251 8.86203C10.6815 9.50885 11.5717 9.87224 12.5 9.87224C13.4283 9.87224 14.3185 9.50885 14.9749 8.86203C15.6313 8.21519 16 7.3379 16 6.42315ZM22.5 9.87224C22.9596 9.87224 23.4148 9.78303 23.8394 9.60969C24.264 9.43636 24.6499 9.1823 24.9749 8.86203C25.2999 8.54175 25.5577 8.16152 25.7336 7.74306C25.9095 7.3246 26 6.87609 26 6.42315C26 5.97021 25.9095 5.5217 25.7336 5.10324C25.5577 4.68478 25.2999 4.30455 24.9749 3.98427C24.6499 3.664 24.264 3.40994 23.8394 3.23661C23.4148 3.06327 22.9596 2.97406 22.5 2.97406C21.5717 2.97406 20.6815 3.33744 20.0251 3.98427C19.3687 4.6311 19 5.50839 19 6.42315C19 7.3379 19.3687 8.21519 20.0251 8.86203C20.6815 9.50885 21.5717 9.87224 22.5 9.87224ZM3 15.2922C3 13.9323 4.12 12.8286 5.5 12.8286H16V19.7268H3.5C3.36739 19.7268 3.24021 19.6749 3.14645 19.5825C3.05268 19.4901 3 19.3647 3 19.2341V15.2922ZM19 22.6831H29.438C29.718 26.0731 29.566 29.4887 28.982 32.8452C28.9114 33.2491 28.7096 33.6194 28.407 33.9006C28.1044 34.1817 27.7173 34.3584 27.304 34.4041L25.476 34.6071C23.3227 34.8437 21.164 34.9842 19 35.0289V22.6831ZM19 19.7268H31.5C31.6326 19.7268 31.7598 19.6749 31.8536 19.5825C31.9473 19.4901 32 19.3647 32 19.2341V15.2922C32 13.9323 30.88 12.8286 29.5 12.8286H19V19.7268ZM16 22.6831V35.0289C13.836 34.9843 11.6751 34.8436 9.524 34.6071L7.696 34.4041C7.28298 34.3585 6.89613 34.1821 6.59355 33.9014C6.29098 33.6206 6.08901 33.2507 6.018 32.8471C5.43414 29.4914 5.28094 26.0766 5.562 22.6831H16Z" fill="#EDA700"/>
</svg>
