<svg width="36" height="36" viewBox="0 0 36 36" fill="none" xmlns="http://www.w3.org/2000/svg">
<path fill-rule="evenodd" clip-rule="evenodd" d="M16.1583 0H19.675C21.9533 0 23.7917 -2.48353e-08 25.2367 0.195C26.7367 0.395 28 0.828333 29.0033 1.83C29.5 2.32833 29.8567 2.89 30.115 3.51333C31.6683 3.70667 32.9733 4.13333 34.0033 5.16333C35.0067 6.16667 35.4367 7.43 35.64 8.93C35.8333 10.375 35.8333 12.2133 35.8333 14.4917V21.3417C35.8333 23.62 35.8333 25.4583 35.64 26.9033C35.4367 28.4033 35.0067 29.6667 34.0033 30.67C32.9733 31.7 31.67 32.1267 30.115 32.3217C29.8567 32.9433 29.5 33.505 29.0033 34.0033C28 35.0067 26.7367 35.4367 25.2367 35.64C23.7917 35.8333 21.9533 35.8333 19.675 35.8333H16.1583C13.88 35.8333 12.0417 35.8333 10.5967 35.64C9.09667 35.4367 7.83333 35.0067 6.83 34.0033C6.35262 33.5212 5.97488 32.9498 5.71833 32.3217C4.165 32.1267 2.86 31.7 1.83 30.67C0.826667 29.6667 0.396667 28.4033 0.195 26.9033C-2.48353e-08 25.4583 0 23.62 0 21.3417V14.4917C0 12.2133 -2.48353e-08 10.375 0.195 8.93C0.395 7.43 0.828333 6.16667 1.83 5.16333C2.86 4.13333 4.16333 3.70667 5.71833 3.51333C5.97469 2.88463 6.35244 2.31262 6.83 1.83C7.83333 0.826667 9.09667 0.396667 10.5967 0.195C12.0417 -2.48353e-08 13.88 0 16.1583 0ZM5.13 6.15C4.40167 6.32667 3.94667 6.58333 3.59833 6.93333C3.13667 7.39333 2.83667 8.04 2.67167 9.26333C2.50333 10.5233 2.5 12.1917 2.5 14.5833V21.25C2.5 23.6417 2.50333 25.3117 2.67167 26.57C2.83667 27.7933 3.13833 28.44 3.59833 28.9017C3.94667 29.25 4.40167 29.5067 5.13167 29.6833C5 28.33 5 26.6733 5 24.675V11.1583C5 9.16167 5 7.50333 5.13 6.15ZM30.7033 29.6833C31.4317 29.5067 31.8867 29.25 32.235 28.9017C32.6967 28.44 32.9967 27.7933 33.1617 26.5683C33.33 25.3117 33.3333 23.6433 33.3333 21.2517V14.585C33.3333 12.1917 33.33 10.5233 33.1617 9.26333C32.9967 8.04 32.695 7.39333 32.235 6.93167C31.8867 6.58333 31.4317 6.32667 30.7017 6.15C30.8333 7.50333 30.8333 9.16167 30.8333 11.1583V24.675C30.8333 26.6717 30.8333 28.33 30.7033 29.6833ZM10.93 2.67167C9.70667 2.83667 9.06 3.13833 8.59833 3.59833C8.13667 4.06 7.83667 4.70667 7.67167 5.93167C7.50333 7.18667 7.5 8.85667 7.5 11.25V24.5833C7.5 26.975 7.50333 28.6433 7.67167 29.9033C7.83667 31.1267 8.13833 31.7733 8.59833 32.235C9.06 32.6967 9.70667 32.9967 10.9317 33.1617C12.1883 33.33 13.8583 33.3333 16.25 33.3333H19.5833C21.975 33.3333 23.645 33.33 24.9033 33.1617C26.1267 32.9967 26.7733 32.695 27.235 32.235C27.6967 31.7733 27.9967 31.1267 28.1617 29.9017C28.33 28.6433 28.3333 26.975 28.3333 24.5833V11.25C28.3333 8.85833 28.33 7.18833 28.1617 5.93C27.9967 4.70667 27.695 4.06 27.235 3.59833C26.7733 3.13667 26.1267 2.83667 24.9017 2.67167C23.645 2.50333 21.975 2.5 19.5833 2.5H16.25C13.8583 2.5 12.1883 2.50333 10.93 2.67167ZM11.6667 12.9167C11.6667 12.5851 11.7984 12.2672 12.0328 12.0328C12.2672 11.7984 12.5851 11.6667 12.9167 11.6667H22.9167C23.2482 11.6667 23.5661 11.7984 23.8005 12.0328C24.035 12.2672 24.1667 12.5851 24.1667 12.9167C24.1667 13.2482 24.035 13.5661 23.8005 13.8005C23.5661 14.035 23.2482 14.1667 22.9167 14.1667H12.9167C12.5851 14.1667 12.2672 14.035 12.0328 13.8005C11.7984 13.5661 11.6667 13.2482 11.6667 12.9167ZM11.6667 19.5833C11.6667 19.2518 11.7984 18.9339 12.0328 18.6994C12.2672 18.465 12.5851 18.3333 12.9167 18.3333H22.9167C23.2482 18.3333 23.5661 18.465 23.8005 18.6994C24.035 18.9339 24.1667 19.2518 24.1667 19.5833C24.1667 19.9149 24.035 20.2328 23.8005 20.4672C23.5661 20.7016 23.2482 20.8333 22.9167 20.8333H12.9167C12.5851 20.8333 12.2672 20.7016 12.0328 20.4672C11.7984 20.2328 11.6667 19.9149 11.6667 19.5833ZM11.6667 26.25C11.6667 25.9185 11.7984 25.6005 12.0328 25.3661C12.2672 25.1317 12.5851 25 12.9167 25H17.9167C18.2482 25 18.5661 25.1317 18.8005 25.3661C19.035 25.6005 19.1667 25.9185 19.1667 26.25C19.1667 26.5815 19.035 26.8995 18.8005 27.1339C18.5661 27.3683 18.2482 27.5 17.9167 27.5H12.9167C12.5851 27.5 12.2672 27.3683 12.0328 27.1339C11.7984 26.8995 11.6667 26.5815 11.6667 26.25Z" fill="#6263A5"/>
</svg>
