<svg width="36" height="33" viewBox="0 0 36 33" fill="none" xmlns="http://www.w3.org/2000/svg">
<path d="M24.5833 31.25V27.9167C24.5833 26.1486 23.881 24.4529 22.6307 23.2026C21.3805 21.9524 19.6848 21.25 17.9167 21.25H7.91667C6.14856 21.25 4.45286 21.9524 3.20262 23.2026C1.95238 24.4529 1.25 26.1486 1.25 27.9167V31.25M24.5833 1.46335C26.0129 1.83396 27.279 2.66879 28.1828 3.83679C29.0866 5.00478 29.577 6.43983 29.577 7.91668C29.577 9.39353 29.0866 10.8286 28.1828 11.9966C27.279 13.1646 26.0129 13.9994 24.5833 14.37M34.5833 31.25V27.9167C34.5822 26.4396 34.0906 25.0046 33.1856 23.8372C32.2806 22.6698 31.0135 21.836 29.5833 21.4667" stroke="#EDA700" stroke-width="2.5" stroke-linecap="round" stroke-linejoin="round"/>
<path d="M12.9167 14.5833C16.5986 14.5833 19.5833 11.5986 19.5833 7.91667C19.5833 4.23477 16.5986 1.25 12.9167 1.25C9.23477 1.25 6.25 4.23477 6.25 7.91667C6.25 11.5986 9.23477 14.5833 12.9167 14.5833Z" stroke="#EDA700" stroke-width="2.5" stroke-linecap="round" stroke-linejoin="round"/>
</svg>
