<svg width="40" height="30" viewBox="0 0 40 30" fill="none" xmlns="http://www.w3.org/2000/svg">
<path fill-rule="evenodd" clip-rule="evenodd" d="M15 3.75C15 2.75544 15.3951 1.80161 16.0983 1.09835C16.8016 0.395088 17.7554 0 18.75 0H21.25C22.2446 0 23.1984 0.395088 23.9017 1.09835C24.6049 1.80161 25 2.75544 25 3.75V6.25C25 7.24456 24.6049 8.19839 23.9017 8.90165C23.1984 9.60491 22.2446 10 21.25 10V12.5H35C35.3315 12.5 35.6495 12.6317 35.8839 12.8661C36.1183 13.1005 36.25 13.4185 36.25 13.75V16.25C36.25 16.5815 36.1183 16.8995 35.8839 17.1339C35.6495 17.3683 35.3315 17.5 35 17.5C34.6685 17.5 34.3505 17.3683 34.1161 17.1339C33.8817 16.8995 33.75 16.5815 33.75 16.25V15H21.25V16.25C21.25 16.5815 21.1183 16.8995 20.8839 17.1339C20.6495 17.3683 20.3315 17.5 20 17.5C19.6685 17.5 19.3505 17.3683 19.1161 17.1339C18.8817 16.8995 18.75 16.5815 18.75 16.25V15H6.25V16.25C6.25 16.5815 6.1183 16.8995 5.88388 17.1339C5.64946 17.3683 5.33152 17.5 5 17.5C4.66848 17.5 4.35054 17.3683 4.11612 17.1339C3.8817 16.8995 3.75 16.5815 3.75 16.25V13.75C3.75 13.4185 3.8817 13.1005 4.11612 12.8661C4.35054 12.6317 4.66848 12.5 5 12.5H18.75V10C17.7554 10 16.8016 9.60491 16.0983 8.90165C15.3951 8.19839 15 7.24456 15 6.25V3.75ZM21.25 7.5C21.5815 7.5 21.8995 7.3683 22.1339 7.13388C22.3683 6.89946 22.5 6.58152 22.5 6.25V3.75C22.5 3.41848 22.3683 3.10054 22.1339 2.86612C21.8995 2.6317 21.5815 2.5 21.25 2.5H18.75C18.4185 2.5 18.1005 2.6317 17.8661 2.86612C17.6317 3.10054 17.5 3.41848 17.5 3.75V6.25C17.5 6.58152 17.6317 6.89946 17.8661 7.13388C18.1005 7.3683 18.4185 7.5 18.75 7.5H21.25ZM0 23.75C0 22.7554 0.395088 21.8016 1.09835 21.0983C1.80161 20.3951 2.75544 20 3.75 20H6.25C7.24456 20 8.19839 20.3951 8.90165 21.0983C9.60491 21.8016 10 22.7554 10 23.75V26.25C10 27.2446 9.60491 28.1984 8.90165 28.9017C8.19839 29.6049 7.24456 30 6.25 30H3.75C2.75544 30 1.80161 29.6049 1.09835 28.9017C0.395088 28.1984 0 27.2446 0 26.25L0 23.75ZM3.75 22.5C3.41848 22.5 3.10054 22.6317 2.86612 22.8661C2.6317 23.1005 2.5 23.4185 2.5 23.75V26.25C2.5 26.5815 2.6317 26.8995 2.86612 27.1339C3.10054 27.3683 3.41848 27.5 3.75 27.5H6.25C6.58152 27.5 6.89946 27.3683 7.13388 27.1339C7.3683 26.8995 7.5 26.5815 7.5 26.25V23.75C7.5 23.4185 7.3683 23.1005 7.13388 22.8661C6.89946 22.6317 6.58152 22.5 6.25 22.5H3.75ZM15 23.75C15 22.7554 15.3951 21.8016 16.0983 21.0983C16.8016 20.3951 17.7554 20 18.75 20H21.25C22.2446 20 23.1984 20.3951 23.9017 21.0983C24.6049 21.8016 25 22.7554 25 23.75V26.25C25 27.2446 24.6049 28.1984 23.9017 28.9017C23.1984 29.6049 22.2446 30 21.25 30H18.75C17.7554 30 16.8016 29.6049 16.0983 28.9017C15.3951 28.1984 15 27.2446 15 26.25V23.75ZM18.75 22.5C18.4185 22.5 18.1005 22.6317 17.8661 22.8661C17.6317 23.1005 17.5 23.4185 17.5 23.75V26.25C17.5 26.5815 17.6317 26.8995 17.8661 27.1339C18.1005 27.3683 18.4185 27.5 18.75 27.5H21.25C21.5815 27.5 21.8995 27.3683 22.1339 27.1339C22.3683 26.8995 22.5 26.5815 22.5 26.25V23.75C22.5 23.4185 22.3683 23.1005 22.1339 22.8661C21.8995 22.6317 21.5815 22.5 21.25 22.5H18.75ZM30 23.75C30 22.7554 30.3951 21.8016 31.0983 21.0983C31.8016 20.3951 32.7554 20 33.75 20H36.25C37.2446 20 38.1984 20.3951 38.9016 21.0983C39.6049 21.8016 40 22.7554 40 23.75V26.25C40 27.2446 39.6049 28.1984 38.9016 28.9017C38.1984 29.6049 37.2446 30 36.25 30H33.75C32.7554 30 31.8016 29.6049 31.0983 28.9017C30.3951 28.1984 30 27.2446 30 26.25V23.75ZM33.75 22.5C33.4185 22.5 33.1005 22.6317 32.8661 22.8661C32.6317 23.1005 32.5 23.4185 32.5 23.75V26.25C32.5 26.5815 32.6317 26.8995 32.8661 27.1339C33.1005 27.3683 33.4185 27.5 33.75 27.5H36.25C36.5815 27.5 36.8995 27.3683 37.1339 27.1339C37.3683 26.8995 37.5 26.5815 37.5 26.25V23.75C37.5 23.4185 37.3683 23.1005 37.1339 22.8661C36.8995 22.6317 36.5815 22.5 36.25 22.5H33.75Z" fill="#6263A5"/>
</svg>
