<svg width="16" height="16" viewBox="0 0 16 16" fill="none" xmlns="http://www.w3.org/2000/svg">
<path d="M12.8958 2.1847L12.6993 2.38063L11.5806 3.49807C12.6111 4.56591 13.1211 5.87927 13.1211 7.44736C13.1211 9.02463 12.5915 10.3576 11.5218 11.4254C10.4522 12.5031 9.13695 13.0419 7.55662 13.0419C5.97629 13.0419 4.65129 12.5031 3.59141 11.4254C2.52173 10.3478 1.9921 9.02524 1.9921 7.44736C1.9921 5.85968 2.52173 4.51692 3.59141 3.43929L3.6012 3.42949C3.15974 2.99843 2.71827 2.56738 2.2762 2.12592L2.2664 2.13571C0.823841 3.58624 0.0976562 5.35025 0.0976562 7.43695C0.0976562 9.50467 0.814044 11.2687 2.2664 12.729C3.70958 14.1789 5.47604 14.9143 7.56641 14.9143C9.65678 14.9143 11.4233 14.1887 12.8762 12.7284C14.3286 11.2785 15.0548 9.51446 15.0548 7.43695C15.0352 5.37964 14.3188 3.62542 12.8958 2.1847Z" fill="#EDA700"/>
<path d="M7.55693 15.022C5.44697 15.022 3.6407 14.2769 2.18834 12.8074C0.73598 11.3379 0 9.53406 0 7.44736C0 5.34046 0.73598 3.53726 2.18834 2.07755L2.26672 2.00836L2.3359 2.06714C2.77737 2.49881 3.21883 2.93966 3.6603 3.37072L3.72948 3.43929L3.6505 3.51767C2.61021 4.57571 2.08058 5.89888 2.08058 7.45716C2.08058 9.00504 2.61021 10.3184 3.6505 11.3667C4.6914 12.4155 6.00599 12.9543 7.54713 12.9543C9.09807 12.9543 10.4029 12.4253 11.4432 11.3667C12.4841 10.3184 13.0137 8.99524 13.0137 7.45716C13.0137 5.92827 12.5037 4.62469 11.4928 3.57645L11.4236 3.50787L12.8863 2.04755L12.9549 2.11613C14.3975 3.56665 15.1237 5.36985 15.1237 7.44736C15.1237 9.53406 14.3779 11.3373 12.9255 12.8074C11.4634 14.2769 9.6571 15.022 7.55693 15.022ZM2.26672 2.27287C0.882934 3.68421 0.186138 5.42863 0.186138 7.44675C0.186138 9.48569 0.902528 11.2393 2.32611 12.6696C3.73928 14.1005 5.50575 14.8261 7.55693 14.8261C9.60812 14.8261 11.3746 14.1005 12.7975 12.6702C14.2211 11.2393 14.9473 9.48508 14.9473 7.44736C14.9473 5.44823 14.2603 3.7234 12.9059 2.32247L11.7279 3.49807C12.729 4.56591 13.2298 5.89826 13.2298 7.44736C13.2298 9.04423 12.68 10.4066 11.6005 11.4946C10.521 12.5821 9.16665 13.1405 7.56673 13.1405C5.9668 13.1405 4.60261 12.5919 3.53294 11.494C2.45346 10.4066 1.90363 9.04484 1.90363 7.44675C1.90363 5.86948 2.43387 4.51693 3.46436 3.43929C3.05796 3.05793 2.65868 2.66906 2.26672 2.27287Z" fill="#EDA700"/>
<path d="M8.28338 0.0784302H6.84082V5.48743H8.28338V0.0784302Z" fill="#EDA700"/>
<path d="M8.35214 5.55595H6.78223V0H8.35214V5.55595ZM6.90959 5.409H8.22479V0.146951H6.90959V5.409Z" fill="#EDA700"/>
</svg>
