<?xml version="1.0" encoding="UTF-8"?>
<svg id="_Слой_1" data-name="Слой_1" xmlns="http://www.w3.org/2000/svg" version="1.1" viewBox="0 0 62 62">
  <!-- Generator: Adobe Illustrator 30.2.1, SVG Export Plug-In . SVG Version: 2.1.1 Build 1)  -->
  <defs>
    <style>
      .st0 {
        fill: #f49c55;
      }
    </style>
  </defs>
  <path class="st0" d="M46.1,16.1l-.5.5-3.1,3.1c2.9,3,4.3,6.7,4.3,11s-1.5,8.1-4.5,11.1c-3,3-6.7,4.5-11.1,4.5s-8.1-1.5-11.1-4.5c-3-3-4.5-6.7-4.5-11.1s1.5-8.2,4.5-11.2h0c-1.2-1.2-2.5-2.4-3.7-3.7h0c-4,4.1-6.1,9-6.1,14.9s2,10.7,6.1,14.8c4,4.1,9,6.1,14.8,6.1s10.8-2,14.9-6.1c4.1-4.1,6.1-9,6.1-14.8,0-5.8-2.1-10.7-6-14.7Z"/>
  <path class="st0" d="M31.1,52c-5.9,0-11-2.1-15-6.2-4.1-4.1-6.1-9.2-6.1-15s2.1-10.9,6.1-15l.2-.2.2.2c1.2,1.2,2.5,2.4,3.7,3.6l.2.2-.2.2c-2.9,3-4.4,6.7-4.4,11s1.5,8,4.4,10.9c2.9,2.9,6.6,4.4,10.9,4.4s8-1.5,10.9-4.4c2.9-2.9,4.4-6.6,4.4-10.9s-1.4-7.9-4.3-10.9l-.2-.2,4.1-4.1.2.2c4,4.1,6.1,9.1,6.1,14.9s-2.1,10.9-6.1,15c-4.1,4.1-9.1,6.2-15,6.2ZM16.3,16.4c-3.9,3.9-5.8,8.8-5.8,14.5s2,10.6,6,14.6c4,4,8.9,6,14.6,6s10.7-2,14.7-6c4-4,6-8.9,6-14.6s-1.9-10.4-5.7-14.3l-3.3,3.3c2.8,3,4.2,6.7,4.2,11s-1.5,8.3-4.6,11.3c-3,3-6.8,4.6-11.3,4.6s-8.3-1.5-11.3-4.6c-3-3-4.6-6.9-4.6-11.3s1.5-8.2,4.4-11.2c-1.1-1.1-2.3-2.2-3.4-3.3Z"/>
  <path class="st0" d="M33.2,10.2h-4v15.1h4v-15.1Z"/>
  <path class="st0" d="M33.4,25.5h-4.4v-15.5h4.4v15.5ZM29.3,25.1h3.7v-14.7h-3.7v14.7Z"/>
</svg>