<svg width="62" height="62" viewBox="0 0 62 62" fill="none" xmlns="http://www.w3.org/2000/svg">
<rect width="62" height="62" rx="12" fill="#F5F5F5"/>
<path d="M31.3695 7.40515C44.5184 7.40515 55.2499 18.1095 55.2499 31.2919C55.2499 44.4742 44.5277 55.1786 31.3695 55.1786C18.2112 55.1786 7.45215 44.4742 7.45215 31.2919C7.45215 18.1095 18.2205 7.40515 31.3695 7.40515Z" fill="url(#paint0_linear_22_2)"/>
<path d="M11.3085 44.4465C12.6649 43.6727 13.7999 43.4977 13.7999 43.4977L17.5 43.4147L19.4839 43.8017L20.5359 42.9173L23.6547 41.6184L38.5661 41.7105L39.7933 44.8426L41.6388 45.6993L44.6838 46.5653L50.2572 45.9941C37.911 61.7927 17.62 55.0403 11.29 44.4465V44.4281L11.3085 44.4465Z" fill="white"/>
<path d="M24.7439 26.0136L25.1591 25.4517C25.1591 25.4517 32.4118 22.7894 34.1004 22.9368L35.4937 23.5724L38.1512 25.7649L39.277 28.0587L39.6922 33.1069L39.2308 35.9349L39.1847 37.2799L39.0647 39.7671L38.7695 41.1858L35.9274 41.9964L35.5676 42.3281L34.3957 43.3506L31.5906 44.6403L29.2192 44.9351L27.7981 44.5666L26.7831 44.4745L25.7958 44.1613L24.6239 42.6321L23.5259 41.2503L22.8892 39.2513L22.9353 38.0076L22.7139 36.4969L23.3967 34.2031L23.7104 33.328L23.5905 32.2778L23.4705 31.8172L23.2214 30.6012L22.9538 29.7445L22.88 28.8693L23.1476 28.4824L23.7842 28.2613L24.1072 27.8652L24.7347 26.0136H24.7439Z" fill="#E9D6BD"/>
<path d="M18.4319 43.8387C17.4723 44.5481 16.9279 45.2574 15.5899 46.805C15.0916 47.4314 15.0824 47.4406 14.252 48.3618L14.7041 48.8132C15.0363 48.1868 15.0824 48.1776 15.5899 47.3854C16.4204 46.0957 17.4262 44.7599 18.4319 43.8387Z" fill="#24272A"/>
<path d="M18.8113 43.7559C17.7686 44.76 17.1781 45.718 15.591 48.3895C15.3418 48.8501 15.4064 48.6659 15.0742 49.2094L15.554 49.6884C15.6832 49.3936 15.4249 49.974 15.591 49.5594C16.4214 47.7262 17.6763 45.1745 18.8113 43.7559Z" fill="#24272A"/>
<path d="M14.7968 44.4191C15.0459 44.2072 15.295 44.0414 15.5903 43.9217C16.1347 43.6729 16.8452 43.5071 17.6388 43.4611C17.1405 43.1663 16.4669 43.0005 15.5903 42.9636H15.1289C13.9202 43.1294 13.0805 43.4242 11.5303 44.2165L11.6964 44.3454C13.874 43.8848 14.6676 43.9309 14.7875 44.4283L14.7968 44.4191Z" fill="#24272A"/>
<path d="M15.9502 49.8541L16.4854 50.3331C17.0759 48.2512 18.0171 45.635 19.2259 43.6729C18.1832 45.0086 17.7864 45.7179 15.9502 49.8541Z" fill="#24272A"/>
<path d="M48.098 45.9022L46.5663 46.0127C46.1511 46.0127 45.7174 45.8377 44.97 45.8838C42.211 46.2154 43.0507 45.3402 39.7842 44.7599C39.8672 44.9718 40.0333 45.3402 40.1164 45.589C44.2133 46.0496 42.7923 48.7763 46.4279 47.5696L47.9781 46.6115L50.5156 45.9206H48.0888L48.098 45.9022Z" fill="#24272A"/>
<path d="M37.0166 54.8746L38.4007 54.4785C39.4434 51.5122 39.4526 48.8868 39.7848 45.3402C39.0374 48.8408 38.0593 52.3321 37.0166 54.8746Z" fill="#24272A"/>
<path d="M28.4172 46.7591C28.085 46.2616 27.5037 45.4694 27.3283 45.2114C27.1161 44.9627 24.108 47.7632 23.988 47.6342C23.905 47.5144 21.1922 49.928 20.6477 50.1399C20.1033 50.2965 21.4967 50.2044 21.7089 50.0201C21.7089 50.1859 21.7735 50.6005 21.7735 50.6005L24.4494 49.0989C24.3295 49.1818 24.5786 50.1399 24.5786 50.1399C23.9511 51.6414 22.8715 52.5995 22.1518 53.143L21.7181 53.493L25.446 54.8196L26.0365 54.9301C26.1657 53.8062 26.3687 50.0109 26.5809 50.2965C26.8301 50.5913 28.1311 49.624 27.9558 49.5042C28.5464 49.9648 29.1277 50.4254 29.709 50.84C29.2938 49.4582 28.8324 48.1317 28.408 46.7499L28.4172 46.7591Z" fill="#24272A"/>
<path d="M39.6185 45.3771C38.8249 47.2563 37.9483 49.2185 37.1086 51.1346C36.269 53.0138 35.9275 53.7139 35.1709 55.2155L36.4443 54.9576C36.7765 54.1653 36.7303 54.2206 37.1086 53.3455C38.0683 50.7569 38.991 47.9196 39.6185 45.3771Z" fill="#24272A"/>
<path d="M39.4984 45.0914C39.037 45.7547 38.6587 46.3443 38.2065 47.0904C37.9574 47.8827 37.3668 48.5091 37.1177 49.3013C37.0347 49.4303 36.9885 49.55 36.9885 49.7159C35.7336 51.6412 34.9216 53.5296 33.8789 55.4089L34.7832 55.2983C35.6229 53.548 36.1581 52.5163 37.1177 50.4712C37.9574 48.6381 38.751 46.7957 39.4984 45.0914Z" fill="#24272A"/>
<path d="M26.958 36.8652C27.2533 36.8652 27.5486 36.8652 27.8346 36.9113C28.1668 37.114 28.5451 37.289 28.8404 37.5377C29.1726 37.7496 29.6801 37.6206 29.8462 37.8693C29.9754 38.1181 27.5117 37.7864 27.2533 37.4087C27.1702 37.2429 27.0411 37.0311 26.958 36.8652Z" fill="#24272A"/>
<path d="M33.3528 36.0823C34.5247 35.8336 33.9803 36.7087 33.9803 36.7916C33.4359 36.8377 32.9745 37.2522 32.7623 37.372C32.5962 37.4549 31.9687 37.5009 31.9318 37.4549C31.9318 37.372 31.3044 37.7865 31.4705 37.8326C31.6366 37.8694 30.1786 37.9155 29.8372 37.9155C29.4589 37.8786 31.8026 36.9574 31.8026 36.9574C32.0149 36.6627 32.9284 36.3771 33.3528 36.0823Z" fill="#24272A"/>
<path d="M36.61 27.4783C36.8223 28.1876 36.7392 28.1047 36.4439 28.6021C36.3978 28.6482 36.6562 28.6021 36.7392 28.768C36.7761 28.814 37.2836 28.1876 36.61 27.4783Z" fill="#24272A"/>
<path d="M28.5449 25.0646H29.3385L29.6707 25.1014L30.132 25.1475L30.5565 25.3133L30.9717 25.5252L31.3039 25.7739L31.6361 25.5252L32.0605 25.2672L32.4758 25.1014L32.891 25.0646H33.2693L34.0629 25.1014H33.2232L32.9371 25.1475L32.6788 25.1843L32.3466 25.2672L31.9683 25.4331L31.7191 25.6449L31.47 25.8568L31.3408 26.1055L31.0086 25.8107L30.7134 25.5989L30.3812 25.3962L30.0951 25.2672L29.8368 25.1843L29.4677 25.1475L29.1262 25.1014L28.5449 25.0646Z" fill="#24272A"/>
<path d="M30.0508 24.6409L30.8074 24.8527L31.1396 24.8988L31.4349 24.9357L31.7209 24.8527L32.4776 24.6409L31.601 24.8159H31.2596L30.9274 24.7698L30.6413 24.7238L30.0508 24.6409Z" fill="#24272A"/>
<path d="M30.0497 28.7772L30.2619 27.6073H29.9667V26.6861L29.5514 26.8979L29.3392 26.2255C29.3392 26.2255 28.9609 26.8058 29.007 26.8058C28.9701 26.8058 28.4626 26.2623 28.5088 26.2623C28.4718 26.2623 28.4718 26.6768 28.4718 26.6768L27.9736 26.3452L28.0197 26.7598L27.3922 26.5939L27.4292 26.9256L26.6817 26.8795L26.7648 27.2572C26.7648 27.2572 26.3496 27.3401 26.1373 27.2572C25.9712 27.1743 25.3438 28.464 25.5929 28.3442C25.9712 27.7178 26.5895 27.5981 26.4234 27.8007C26.2111 28.0126 26.0451 28.2982 26.2573 28.5929C26.0451 28.2982 27.2169 28.2613 27.2169 28.2613L27.0047 27.9665C27.0047 27.9665 27.6322 27.9205 27.586 27.8468C27.0877 27.4322 28.1673 27.4691 28.5088 27.681C28.8409 27.9297 29.1362 27.6349 29.5514 28.0955L30.0497 28.768V28.7772Z" fill="#24272A"/>
<path d="M26.0815 28.8599C26.672 28.648 27.4564 28.3164 27.8808 28.2795C28.3422 28.3624 28.9235 28.4454 29.2557 28.7401L29.837 29.2376C29.9201 29.3205 29.8832 29.6153 29.754 29.6521C29.634 29.689 29.4587 29.6153 29.4587 29.6153L29.4218 29.3205C29.0435 30.4444 27.3733 29.9009 27.7055 28.6572L27.4933 28.8691L27.078 28.8323L26.9489 29.127C26.9489 29.21 26.6628 28.9612 26.6997 28.9981C26.6628 28.9612 26.1184 29.4126 26.0723 29.3297C26.0723 29.2468 26.8197 28.8691 26.0723 28.8691L26.0815 28.8599Z" fill="#24272A"/>
<path d="M31.8501 28.8601C31.601 29.0259 31.3057 29.2378 31.1027 29.3207C30.8905 29.4496 31.7301 29.3207 31.7671 29.3207C31.7209 29.3207 31.1027 29.9931 31.1027 29.9931C31.1027 29.9931 31.684 29.7444 31.684 29.6984C31.684 29.7444 31.8501 29.8273 31.8501 29.8273L31.5179 30.4998L32.1823 30.0853L32.6806 30.2879C32.6806 30.2879 32.9297 29.9102 32.8928 29.9563C32.9297 29.9102 33.308 29.8734 33.308 29.9563C33.308 29.8734 33.3542 29.5418 33.308 29.4128C33.308 29.3299 33.4741 29.2009 33.7233 29.118C33.5572 30.2787 34.7659 30.6656 35.3934 29.8642C35.4765 29.6984 35.3934 29.5325 35.2642 29.3207V29.3667L34.9689 29.8273C34.9689 29.8273 34.5076 29.5325 34.6368 29.5325V29.0719C34.6368 29.0719 34.3876 28.989 34.2584 28.9061C34.2954 28.8601 34.3415 28.8601 34.3415 28.8601C35.2642 28.943 35.9747 29.5694 35.9286 29.7352C35.9286 29.7813 36.0947 29.7813 36.3069 29.8181C36.39 29.8181 36.39 29.9471 36.4269 29.9839C36.7221 30.1498 37.1743 30.3616 37.3865 30.5274C38.0509 31.1539 37.3035 30.1498 36.9713 29.901C36.676 29.6523 37.4696 29.901 37.4696 30.03C37.4696 30.159 37.0912 29.5325 37.0543 29.5325C36.8882 29.5325 35.5872 29.118 35.5872 28.9061C35.5872 28.9061 36.4269 29.2378 36.4269 29.2838V28.8232L35.4211 28.4455L34.7936 28.4824L34.3323 28.5284C34.3323 28.5284 33.9539 28.6574 34.0001 28.5653C34.0001 28.4824 34.4984 28.2705 34.7106 28.1876C34.9228 28.1415 33.7878 28.2705 33.2065 28.5192C32.6621 28.814 33.6218 27.856 34.3784 27.856C35.0059 27.856 35.255 27.8928 35.5041 28.0218C35.7164 28.1047 36.1777 28.2705 36.3438 28.5192C36.3438 28.5561 36.5099 28.2705 36.5099 28.2705L36.473 27.7731C36.4269 27.6901 36.39 27.5704 36.3438 27.4414C36.3069 27.6072 36.2608 27.8191 36.2146 27.9849C36.0855 27.5704 35.8825 27.1559 35.7164 26.7321C35.7164 27.3585 35.338 27.4875 35.3011 26.8611C34.9689 26.944 34.6737 27.0269 34.3415 27.1098C34.0923 27.1927 33.7971 27.3217 33.5018 27.4046C33.5479 27.2848 33.5848 27.1098 33.631 26.944C33.5479 26.99 33.4649 27.0269 33.3357 27.0269C33.3818 26.9071 33.4188 26.7321 33.4649 26.5663C33.1327 26.8979 32.8374 27.1927 32.5052 27.4875C32.4683 27.6533 32.3761 27.8191 32.293 27.9481C32.2469 27.9941 32.1638 27.9941 32.1638 27.9941C31.7855 28.1231 32.0439 28.4087 31.8317 28.8693L31.8501 28.8601Z" fill="#24272A"/>
<path d="M41.1681 29.4405C41.3342 29.5234 41.6295 29.5602 41.7956 29.6523C42.0447 29.9471 42.0447 30.7393 41.6295 31.6974C41.2973 32.5357 40.8359 32.4528 40.919 32.8673C41.1312 34.2399 39.8763 34.0741 39.9962 34.4518C40.1623 34.9124 39.2857 36.0823 39.498 38.7538C39.6641 40.8818 39.1196 41.6371 38.6583 41.8398C38.243 42.0517 35.9454 41.9596 35.9454 41.9596C36.0285 41.9964 37.3664 41.5819 38.6583 40.3383C38.9074 40.0895 36.739 40.8357 37.0343 40.7159C38.243 40.1724 38.7506 39.3802 38.7506 39.4631C38.7506 39.6289 36.739 39.8776 37.1634 39.7947C37.2465 39.7487 37.9939 39.417 38.7136 38.5419C38.7967 38.4129 37.3388 39.0394 37.4218 38.9565C38.2615 38.0353 39.092 37.4088 38.8428 37.5378C38.2984 37.7865 37.1265 37.9063 37.3388 37.9523C37.5049 37.9523 39.0551 36.5337 38.8797 36.4876C38.7136 36.4876 36.9974 37.243 37.3388 37.0772C37.6709 36.9114 39.6364 34.8295 38.8428 35.3638C38.0031 35.9073 36.4622 36.285 37.1265 35.9073C37.8001 35.5296 38.8428 34.2768 38.7598 34.1109L37.1265 34.5715C37.1265 34.5715 39.3872 32.4804 39.2119 32.1948C39.0458 31.9001 38.1692 32.4896 38.1323 32.3238C38.1323 32.2409 38.7967 31.3658 39.3872 30.5735C38.4645 31.071 37.3757 31.7803 36.6744 32.0751C36.2592 32.2409 36.13 32.287 36.0469 32.287C35.9639 32.9134 35.2903 33.4569 34.3306 33.5398C33.1219 33.7056 31.9039 33.0792 31.6178 32.2041C31.5717 32.0382 31.5717 31.8724 31.5717 31.7435C31.5348 31.7895 31.5348 31.8264 31.5348 31.7895C31.6547 31.6237 31.2395 30.1221 29.9938 30.205C29.6616 30.288 29.3202 30.9144 29.2833 31.0802C29.1172 31.6237 28.905 32.7476 28.8681 33.42C28.8681 33.549 28.785 32.462 28.8311 32.0014C28.3698 32.462 27.447 32.5817 26.4874 32.2501C25.3986 31.8724 24.7342 30.9604 24.9833 30.2511C24.9003 30.205 24.8542 30.1682 24.8172 30.1314C24.4851 29.5878 24.1898 28.7956 24.1898 28.7956C24.1898 28.7956 24.0698 29.0075 24.1067 29.0075C24.0606 29.0075 23.7746 28.51 23.7746 28.51C23.7746 28.51 23.5254 28.9246 23.4424 28.7588C23.3593 28.4732 23.1102 28.7588 23.1102 28.7588L23.1563 30.0945L23.4516 30.3893V30.592C23.4516 30.592 23.7469 31.0065 23.7469 30.9696C23.7469 31.0157 23.5808 31.3013 23.6177 31.3013C23.5808 31.3013 23.7838 31.7619 23.7838 31.7619C23.7838 31.7619 23.5346 31.9277 23.5346 31.8908C23.5346 31.9369 23.0733 31.3105 23.0733 31.3105C23.0733 31.3105 23.1194 30.638 23.1563 30.638C23.1102 30.638 22.9441 29.7629 22.9441 29.7629L22.861 28.8877L23.1102 28.4732L24.0329 28.0126C24.6973 28.5561 24.9926 29.0996 25.1587 29.5142C25.2048 29.5971 25.3247 29.6431 25.4539 29.68C25.9522 29.3483 26.7458 29.3023 27.5393 29.5971C28.1668 29.8089 28.6651 30.2235 28.9142 30.638C30.0861 28.8417 31.4609 29.8089 32.1345 30.8038C32.4298 30.592 32.7989 30.4261 33.2603 30.3893C33.8877 30.3064 34.5613 30.4353 35.0135 30.6841C35.1427 30.6012 35.2626 30.5183 35.2626 30.5183C35.2626 30.5183 35.6409 30.4722 35.724 30.3893L36.0654 29.9287L36.2684 30.3064C36.0193 30.4353 35.6778 30.8499 35.4748 30.9328C35.6409 31.0986 35.7701 31.2276 35.8901 31.4302C36.1392 31.4763 36.3883 31.4763 36.6836 31.4763C37.7724 30.8499 38.566 30.3893 39.3134 29.7629L38.5568 29.8918C38.3446 29.9287 39.1012 29.5602 39.2211 28.8877C39.3503 28.2613 37.9293 30.0116 38.1415 29.7629C38.3538 29.5141 38.8059 27.9665 38.686 28.1784C38.5199 28.4271 37.6433 29.2194 37.7724 29.0075C38.8982 26.8335 36.6467 24.7055 37.0158 24.9634C37.0158 24.9634 37.348 27.7639 37.228 27.0914C37.0989 26.465 36.1392 24.2173 34.3491 23.0013C30.4644 23.7566 27.5762 24.5028 25.2786 25.5438C24.9833 25.7096 24.7803 25.5438 24.8172 25.378C24.8542 24.4199 23.2301 21.2878 22.6396 21.2418C19.7607 21.1589 17.666 23.3697 14.7871 24.3739C21.8922 19.077 28.1206 16.1936 34.0907 13.4392C41.1128 14.8579 44.4531 14.8118 47.6734 15.604C46.0402 15.8159 43.8256 15.8159 42.0355 16.4423L39.6548 17.5662L38.483 18.1926L38.8151 22.2367C41.408 23.7843 41.611 25.3227 42.2016 26.6584C41.8233 26.3636 41.2881 25.6175 41.4911 25.8201C41.7402 26.032 41.4449 28.9522 41.205 29.4497L41.1681 29.4405Z" fill="#24272A"/>
<path d="M23.822 29.4404L24.0342 29.6892L23.9973 30.7762C23.9973 30.7762 23.6651 30.2787 23.6651 30.2327C23.6651 30.2695 23.499 29.855 23.499 29.855L23.8312 29.4404H23.822Z" fill="#24272A"/>
<path d="M24.4493 25.1476L24.4954 25.4792L24.7446 25.8108H24.9107L24.4124 27.8098L24.1171 27.8559C24.1171 27.8559 24.2371 27.3585 24.2832 27.3585C24.2371 27.3585 23.4066 27.9388 23.4066 27.9388C23.4066 27.9388 23.7019 26.8518 23.7019 26.815C23.7019 26.861 22.8253 27.8559 22.8714 27.8559C22.8253 27.8559 22.7422 27.4782 22.7422 27.4782C22.7422 27.4782 21.9856 28.4363 21.9856 28.3994C21.9856 28.4455 22.9914 26.1885 22.9914 26.1885C22.9914 26.1885 21.4873 27.5703 21.4873 27.5243C21.4873 27.5703 22.2439 26.0596 22.2439 26.0596C22.2439 26.0596 21.4043 26.4741 21.4504 26.4741C21.4043 26.4741 22.1148 25.5161 22.1609 25.47C22.124 25.5161 23.0744 25.3042 23.0744 25.3042L23.665 25.0094L24.4585 25.1384L24.4493 25.1476Z" fill="#24272A"/>
<path d="M32.5128 33.4015C33.0111 34.3595 31.6731 34.1108 31.4701 34.074C31.3871 33.945 31.3871 33.6134 31.5163 33.5304C31.5163 33.4844 31.9776 32.9869 32.0145 32.9869L31.5532 33.0698L31.6823 32.5724L31.4701 32.7382V31.817C31.2579 32.6553 30.9718 33.1988 30.1783 33.991C30.8427 33.991 30.7227 34.4516 30.6766 34.6175C29.9661 35.1978 28.8772 35.4558 28.7111 34.7004L28.462 33.6134L28.1298 33.4475C27.9637 33.8252 28.5081 35.4558 29.1356 35.7045C29.68 35.9164 30.8057 35.5387 31.3133 35.161C31.3133 35.161 32.9834 34.4977 33.1495 34.2029C33.4817 33.7423 32.8542 33.5397 32.522 33.4107L32.5128 33.4015Z" fill="#24272A"/>
<path d="M28.379 32.3606C25.417 33.0699 25.454 35.5756 25.537 35.9072C25.6662 36.1559 25.7492 33.9451 28.0468 33.3647C28.0837 33.3647 27.4194 33.0699 28.379 32.3698V32.3606Z" fill="#24272A"/>
<path d="M32.8916 34.6175C34.5248 34.4517 35.4384 35.1979 35.3553 35.3729C35.6506 35.7506 35.4014 36.2112 35.3553 36.377C35.06 37.2982 34.977 37.0863 34.5618 38.4221C34.2757 39.2603 34.977 35.9164 34.6909 35.3821C34.3957 34.8386 33.7313 35.5018 32.9008 34.6267L32.8916 34.6175Z" fill="#24272A"/>
<path d="M26.4134 35.8242C26.2473 35.7413 25.2416 36.4045 24.9463 37.8692C25.5737 38.7444 25.869 38.3667 25.7029 38.2469C25.5737 37.5376 25.3246 37.1231 26.4134 35.8242Z" fill="#24272A"/>
<path d="M36.3611 36.248L36.4903 36.8652L36.5272 37.3719V37.9523L36.4903 38.4589L36.398 39.0853L36.1489 39.8776L35.7706 40.5869L35.2262 41.2041L34.691 41.7108L34.1466 42.0885L33.6483 42.3372L32.8086 42.6688L33.7313 42.1253L34.4787 41.5818L34.977 41.0014L35.4384 40.3382L35.9459 39.417L36.195 38.5418L36.3242 37.6575L36.3611 36.9574V36.248Z" fill="#24272A"/>
<path d="M30.6396 38.5417C31.8946 38.164 33.2325 37.8784 34.2291 37.2888C34.4782 39.122 31.8853 41.5448 31.5993 41.7106C31.1379 42.0054 36.1115 37.6205 30.6396 38.5417Z" fill="#24272A"/>
<path d="M24.6607 36.202L24.4485 36.4968L24.3655 36.6626L24.1994 36.9574L24.1163 37.289L24.0702 37.6207L24.1163 37.9984L24.1532 38.4958L24.2824 38.9933L24.4946 39.5368L24.6607 39.9974L24.8268 40.3751L25.1129 40.7896L25.3712 41.0475L25.7034 41.2502L25.4543 41.1673L25.2052 41.0015L24.9468 40.7896L24.6976 40.458L24.5316 40.1632L24.4116 39.8316L24.1994 39.4539L24.0333 38.9104L23.9502 38.4958L23.8672 38.0352V37.6575L23.9502 37.3719L24.0333 36.9943L24.1994 36.7455L24.3655 36.4507L24.6607 36.202Z" fill="#24272A"/>
<path d="M23.6092 32.1948C24.4027 34.3228 22.4834 35.4467 23.0648 37.7405C23.0648 37.7773 22.8618 39.2789 23.6553 40.4488C24.1997 41.241 24.2366 41.6187 24.6611 41.7016C25.3255 41.7845 25.0394 41.7016 25.9529 42.4938C26.119 42.6228 26.4973 42.6597 25.9068 42.7426C23.36 43.1203 22.7695 40.0342 22.6495 39.7026C22.5203 39.371 22.6034 37.7865 22.8156 37.9063C23.0186 38.0352 22.4004 36.3679 22.4004 36.3679C22.5665 34.6544 23.6922 34.1938 23.6092 32.1948Z" fill="#24272A"/>
<path d="M16.0894 24.3092L15.8033 25.3962L15.4619 24.3921L16.0894 24.3092Z" fill="#24272A"/>
<path d="M15.7561 26.0227L16.0514 27.6901L15.627 28.0678L15.7561 26.0227Z" fill="#24272A"/>
<path d="M15.9684 28.0217L15.627 28.1968V28.86L16.0053 28.5284L15.9684 28.0217Z" fill="#24272A"/>
<path d="M16.0516 28.7771L15.6738 29.0255V29.4395H16.0516V28.7771Z" fill="#24272A"/>
<path d="M15.6738 29.6062L16.006 29.6891L16.0521 30.1129L15.6738 30.4445V29.6062Z" fill="#24272A"/>
<path d="M15.9227 30.5272C16.0888 30.822 16.338 31.1168 16.5133 31.4484C16.6794 31.863 16.9285 32.5354 16.9747 32.7381C17.0577 32.95 17.353 35.3635 17.353 35.3635H16.9378C16.9378 35.3635 17.0208 34.7371 17.0208 34.7003C17.0208 34.7371 16.5225 35.3635 16.5225 35.3635C16.5225 35.3635 16.1903 35.4464 16.1903 35.4096C16.1903 35.4556 16.5687 34.6174 16.5687 34.6174L15.7751 35.3727C15.7751 35.3727 16.5318 34.2489 16.0704 34.4147C15.6552 34.5805 15.7751 35.3727 15.526 35.3727H15.2768C15.1107 35.3727 15.609 34.2489 15.8212 33.8712C15.1107 33.6593 15.1938 35.3727 14.8616 35.3727H14.2803L14.4464 33.5395C14.4464 33.5395 14.9446 32.038 14.9446 31.9919C14.9446 32.0288 15.7013 30.7391 15.7013 30.7391C15.7843 30.6562 15.8674 30.6101 15.9504 30.5272H15.9227Z" fill="#24272A"/>
<path d="M27.4203 29.9469C28.2969 30.2417 28.8044 30.951 28.5922 31.4853C28.3799 31.9828 27.5033 32.1947 26.6267 31.9091C25.7501 31.6143 25.2057 30.905 25.418 30.3615C25.6671 29.864 26.5437 29.6521 27.4203 29.9469Z" fill="white"/>
<path d="M33.3527 30.859C32.3931 30.9419 31.7656 31.5683 32.0147 32.1948C32.2639 32.8212 33.2235 33.2818 34.1832 33.1528C35.189 33.0699 35.7703 32.4803 35.5211 31.8631C35.3181 31.1906 34.3124 30.7761 33.3527 30.859Z" fill="white"/>
<path d="M27.5395 36.331C27.1612 36.248 26.9121 36.1651 26.3307 36.4139C26.2016 37.0771 26.4138 37.4548 26.4968 37.9983C26.5799 37.2061 26.9951 36.6994 27.5395 36.331Z" fill="#24272A"/>
<path d="M21.7367 47.4682C21.9859 47.1365 22.3642 46.9707 22.5764 47.0905C22.7425 47.1734 22.7056 47.5511 22.4472 47.8827C22.1981 48.2143 21.7829 48.3802 21.6168 48.2604C21.4046 48.1775 21.4876 47.7998 21.746 47.4682H21.7367Z" fill="#24272A"/>
<path d="M30.9267 49.2186C30.8437 48.8409 30.4654 48.5461 30.1701 48.6382C29.9209 48.6751 29.7549 49.0528 29.8748 49.4304C29.9579 49.845 30.29 50.1398 30.5853 50.0937C30.8806 50.0108 31.0467 49.6331 30.9175 49.2186H30.9267Z" fill="#24272A"/>
<path d="M38.7418 42.0885L39.7476 44.6771L39.3323 45.1377L36.3611 47.0538L35.4015 48.3895L34.5618 48.804C34.5618 48.804 33.27 48.933 33.27 48.887C33.27 48.9238 31.5168 51.2637 31.5537 51.2637C31.5168 51.2637 30.4648 52.3046 30.4648 52.3046L32.3841 46.7958L32.8455 48.3434L33.0577 46.4181L33.6021 47.6341C33.6021 47.6341 35.4015 47.0906 35.4384 47.0906C35.3923 47.0906 37.1547 45.6351 37.1547 45.5891C37.1547 45.6351 37.1178 43.3413 37.1178 43.2953C37.1178 43.3413 37.7083 45.2574 37.7083 45.2574L37.8283 43.5071L38.4926 44.7231C38.4926 44.7231 38.1605 42.761 38.2066 42.761C38.1605 42.761 38.751 43.3874 38.751 43.3874V42.0977L38.7418 42.0885Z" fill="#24272A"/>
<path d="M23.2395 41.7108C22.6951 43.1294 22.1507 44.5481 21.5693 45.9299C22.1137 45.718 22.9442 44.0506 24.033 43.6729C25.0757 43.2584 22.6582 43.8387 22.9073 43.7558C23.1564 43.6268 23.83 42.6688 23.83 42.6688L23.0734 42.8346C23.1195 42.4569 23.1564 42.0792 23.2395 41.7015V41.7108Z" fill="#24272A"/>
<path d="M21.1912 46.5103C21.2742 47.6341 20.9789 47.9289 20.5176 49.4305C20.5637 48.3895 20.6837 47.3854 21.1912 46.5103Z" fill="#24272A"/>
<path d="M26.2486 42.8806C27.3744 43.8847 27.2913 44.5111 29.755 44.7138C32.8462 44.0413 33.8058 43.2122 35.6882 42.2081C34.9777 43.4978 33.852 44.2532 32.514 44.7506C31.176 45.2481 30.1703 44.8796 29.9211 44.9994C27.9557 45.8284 26.1194 44.7046 26.2486 42.8714V42.8806Z" fill="#24272A"/>
<path d="M32.2646 45.635C33.8148 45.4232 34.4792 43.9216 36.9891 42.3003C34.2301 45.2205 35.5219 45.2666 34.3962 45.635C31.7202 46.1325 32.3938 45.9298 32.2646 45.635Z" fill="#24272A"/>
<path d="M30.7137 39.1222C30.0493 39.1222 29.4587 38.9103 28.7944 39.1591C28.5821 39.9974 28.6652 40.6606 28.9605 41.3699C28.9974 40.1171 29.2096 39.4078 30.7137 39.113V39.1222Z" fill="#24272A"/>
<path d="M22.696 42.0425C21.3119 42.586 20.6014 42.8808 19.3926 43.8757C19.5587 43.498 19.4295 43.0374 19.8909 42.7058C20.6014 42.1623 21.9393 42.4939 22.696 42.0333V42.0425Z" fill="#24272A"/>
<path d="M24.6606 42.8347C25.9524 43.2493 25.7033 44.2534 26.3307 44.3363C25.9524 44.2073 25.6664 44.1705 25.2419 43.9586C24.8636 43.5809 25.2419 43.3322 24.6514 42.8347H24.6606Z" fill="#24272A"/>
<path d="M26.6625 40.7066C26.6995 41.9963 26.9486 43.1662 27.7514 43.6729C27.9175 43.7097 28.0836 43.7558 28.2497 43.6729C28.4988 43.59 28.4619 43.2583 28.831 43.6268C29.2093 44.0413 29.5784 44.0045 29.5784 44.0045C29.5784 44.1335 30.1689 43.9216 30.5011 43.59C30.9164 43.0464 31.673 42.6688 31.4608 42.7517C30.1689 43.2123 28.831 43.2123 28.4527 41.9963C28.3696 41.7015 28.4527 42.7885 28.4896 42.7885C27.7791 43.3689 27.1977 42.0792 26.6533 40.6974L26.6625 40.7066Z" fill="#24272A"/>
<path d="M32.1445 31.7804C33.2703 32.9503 34.0269 32.6924 34.9496 32.6924C35.0327 32.8582 32.5229 33.4017 32.1445 31.7804Z" fill="#24272A"/>
<path d="M25.583 30.3616C26.5427 31.6973 27.3362 31.5683 28.2589 31.6973C28.3051 31.8631 25.7491 32.075 25.583 30.3616Z" fill="#24272A"/>
<path d="M36.1494 31.5314C36.5641 31.6602 36.5641 31.743 36.5641 32.0282C36.6102 31.9086 36.6931 31.697 36.647 31.5682C36.5641 31.5682 36.3521 31.5682 36.1494 31.5222V31.5314Z" fill="#24272A"/>
<path d="M28.5908 28.7311C28.8396 28.7771 29.0055 28.8967 29.2174 29.0255L28.9226 29.3199C28.9226 29.3199 28.5447 29.2003 28.5908 29.2371V28.7403V28.7311Z" fill="white"/>
<path d="M34.626 29.0811V29.5503L34.9669 29.8079L35.271 29.3571C35.0683 29.2283 34.884 29.1179 34.626 29.0719V29.0811Z" fill="white"/>
<path d="M21.6064 20.7258C24.1532 19.7217 27.918 19.9797 30.6769 19.8967C33.2698 17.6859 36.7762 16.7647 40.1165 15.8895C36.7301 17.2253 33.3898 18.7268 30.843 20.8548C29.0437 20.4771 25.242 20.2744 21.6064 20.7258Z" fill="white"/>
<path d="M37.0352 22.2275L36.9891 22.4763L36.4908 23.2316C36.2785 23.2316 36.0294 23.0658 35.7803 23.0658C35.9464 22.854 36.1586 22.6881 36.3247 22.5684C36.4908 22.4855 36.7861 22.2736 37.0352 22.2367V22.2275Z" fill="white"/>
<path d="M36.6562 23.1025C36.8223 23.1854 36.9884 23.3144 37.1176 23.4342C37.3298 23.0565 37.7082 22.9736 38.0311 22.9367C37.6528 22.7709 37.1176 22.8906 36.6562 23.1025Z" fill="white"/>
<path d="M25.4551 49.5502C25.9164 49.5871 26.3317 49.7529 26.4147 50.1306C26.6639 50.0477 26.793 50.0108 26.83 49.8358C26.3686 49.4213 25.9164 49.4581 25.4551 49.541V49.5502Z" fill="white"/>
<path d="M7.90428 31.3381C7.90428 25.0924 10.3495 19.2059 14.7971 14.7749C19.2355 10.344 25.1225 7.90278 31.3694 7.90278C44.2877 7.90278 54.7885 18.4137 54.7885 31.3381C54.7885 44.2626 44.2785 54.7642 31.3694 54.7642C18.4604 54.7642 7.90428 44.2533 7.90428 31.3381ZM14.1604 14.1393C9.53752 18.7453 7 24.8529 7 31.3381C7 44.76 17.9344 55.6762 31.3787 55.6762C44.8229 55.6762 55.7112 44.76 55.7112 31.3381C55.7112 17.9162 44.7952 7 31.3787 7C24.8918 7 18.7833 9.5333 14.1697 14.1301L14.1604 14.1393Z" fill="#EE7F1A"/>
<defs>
<linearGradient id="paint0_linear_22_2" x1="31.351" y1="7.40515" x2="31.351" y2="55.1694" gradientUnits="userSpaceOnUse">
<stop stop-color="#B2ACC9"/>
<stop offset="0.26" stop-color="#AFA9C7"/>
<stop offset="0.45" stop-color="#A5A0C0"/>
<stop offset="0.62" stop-color="#9691B5"/>
<stop offset="0.77" stop-color="#7F7DA6"/>
<stop offset="0.91" stop-color="#636293"/>
<stop offset="1" stop-color="#4D4E84"/>
</linearGradient>
</defs>
</svg>
