<?xml version="1.0" encoding="UTF-8"?>
<svg id="_Слой_1" data-name="Слой_1" xmlns="http://www.w3.org/2000/svg" version="1.1" xmlns:xlink="http://www.w3.org/1999/xlink" viewBox="0 0 62 62">
  <!-- Generator: Adobe Illustrator 30.2.1, SVG Export Plug-In . SVG Version: 2.1.1 Build 1)  -->
  <defs>
    <style>
      .st0 {
        fill: #fff;
      }

      .st1 {
        fill: #ee7f1a;
      }

      .st2 {
        fill: url(#_Безымянный_градиент);
      }

      .st3 {
        fill: #24272a;
      }

      .st4 {
        fill: #e9d6bd;
      }
    </style>
    <linearGradient id="_Безымянный_градиент" data-name="Безымянный градиент" x1="31.4" y1="54.5" x2="31.4" y2="6.7" gradientTransform="translate(0 61.9) scale(1 -1)" gradientUnits="userSpaceOnUse">
      <stop offset="0" stop-color="#b2acc9"/>
      <stop offset=".3" stop-color="#afa9c7"/>
      <stop offset=".5" stop-color="#a5a0c0"/>
      <stop offset=".6" stop-color="#9691b5"/>
      <stop offset=".8" stop-color="#7f7da6"/>
      <stop offset=".9" stop-color="#636293"/>
      <stop offset="1" stop-color="#4d4e84"/>
    </linearGradient>
  </defs>
  <path class="st2" d="M31.4,7.4c13.1,0,23.9,10.7,23.9,23.9s-10.7,23.9-23.9,23.9S7.5,44.5,7.5,31.3,18.2,7.4,31.4,7.4Z"/>
  <path class="st0" d="M11.3,44.4c1.4-.8,2.5-.9,2.5-.9h3.7c0,0,2,.3,2,.3l1.1-.9,3.1-1.3h14.9c0,0,1.2,3.2,1.2,3.2l1.8.9,3,.9,5.6-.6c-12.3,15.8-32.6,9-39-1.5h0s0,0,0,0Z"/>
  <path class="st4" d="M24.7,26l.4-.6s7.3-2.7,8.9-2.5l1.4.6,2.7,2.2,1.1,2.3.4,5-.5,2.8v1.3s-.2,2.5-.2,2.5l-.3,1.4-2.8.8-.4.3-1.2,1-2.8,1.3-2.4.3-1.4-.4h-1c0,0-1-.4-1-.4l-1.2-1.5-1.1-1.4-.6-2v-1.2s-.2-1.5-.2-1.5l.7-2.3.3-.9v-1.1c-.1,0-.2-.5-.2-.5l-.2-1.2-.3-.9v-.9c0,0,.2-.4.2-.4l.6-.2.3-.4.6-1.9h0Z"/>
  <path class="st3" d="M18.4,43.8c-1,.7-1.5,1.4-2.8,3-.5.6-.5.6-1.3,1.6l.5.5c.3-.6.4-.6.9-1.4.8-1.3,1.8-2.6,2.8-3.5Z"/>
  <path class="st3" d="M18.8,43.8c-1,1-1.6,2-3.2,4.6-.2.5-.2.3-.5.8l.5.5c.1-.3-.1.3,0-.1.8-1.8,2.1-4.4,3.2-5.8Z"/>
  <path class="st3" d="M14.8,44.4c.2-.2.5-.4.8-.5.5-.2,1.3-.4,2-.5-.5-.3-1.2-.5-2-.5h-.5c-1.2.2-2,.5-3.6,1.3h.2c2.2-.3,3-.3,3.1.2h0Z"/>
  <path class="st3" d="M16,49.9l.5.5c.6-2.1,1.5-4.7,2.7-6.7-1,1.3-1.4,2-3.3,6.2Z"/>
  <path class="st3" d="M48.1,45.9h-1.5c-.4.1-.8,0-1.6,0-2.8.3-1.9-.5-5.2-1.1,0,.2.2.6.3.8,4.1.5,2.7,3.2,6.3,2l1.6-1,2.5-.7h-2.4,0Z"/>
  <path class="st3" d="M37,54.9l1.4-.4c1-3,1.1-5.6,1.4-9.1-.7,3.5-1.7,7-2.8,9.5Z"/>
  <path class="st3" d="M28.4,46.8c-.3-.5-.9-1.3-1.1-1.5-.2-.2-3.2,2.6-3.3,2.4,0-.1-2.8,2.3-3.3,2.5-.5.2.8,0,1.1-.1,0,.2,0,.6,0,.6l2.7-1.5c-.1,0,.1,1,.1,1-.6,1.5-1.7,2.5-2.4,3l-.4.3,3.7,1.3h.6c.1-1,.3-4.8.5-4.5.2.3,1.6-.7,1.4-.8.6.5,1.2.9,1.8,1.3-.4-1.4-.9-2.7-1.3-4.1h0Z"/>
  <path class="st3" d="M39.6,45.4c-.8,1.9-1.7,3.8-2.5,5.8-.8,1.9-1.2,2.6-1.9,4.1l1.3-.3c.3-.8.3-.7.7-1.6,1-2.6,1.9-5.4,2.5-8Z"/>
  <path class="st3" d="M39.5,45.1c-.5.7-.8,1.3-1.3,2-.2.8-.8,1.4-1.1,2.2,0,.1-.1.2-.1.4-1.3,1.9-2.1,3.8-3.1,5.7h.9c.8-1.9,1.4-2.9,2.3-4.9.8-1.8,1.6-3.7,2.4-5.4Z"/>
  <path class="st3" d="M27,36.9c.3,0,.6,0,.9,0,.3.2.7.4,1,.6.3.2.8,0,1,.3.1.2-2.3,0-2.6-.5,0-.2-.2-.4-.3-.5Z"/>
  <path class="st3" d="M33.4,36.1c1.2-.2.6.6.6.7-.5,0-1,.5-1.2.6-.2,0-.8.1-.8,0,0,0-.6.3-.5.4.2,0-1.3,0-1.6,0-.4,0,2-1,2-1,.2-.3,1.1-.6,1.6-.9Z"/>
  <path class="st3" d="M36.6,27.5c.2.7.1.6-.2,1.1,0,0,.2,0,.3.2,0,0,.5-.6-.1-1.3Z"/>
  <path class="st3" d="M28.5,25.1h1.1s.5,0,.5,0l.4.2.4.2.3.2.3-.2.4-.3.4-.2h.4s.4,0,.4,0h.8s-.8,0-.8,0h-.3s-.3,0-.3,0h-.3c0,0-.4.2-.4.2l-.2.2-.2.2v.2c-.1,0-.5-.3-.5-.3l-.3-.2-.3-.2h-.3c0-.1-.3-.2-.3-.2h-.4s-.3,0-.3,0h-.6Z"/>
  <path class="st3" d="M30.1,24.6l.8.2h.3s.3,0,.3,0h.3c0,0,.8-.3.8-.3l-.9.2h-.7s-.3,0-.3,0h-.6Z"/>
  <path class="st3" d="M30,28.8l.2-1.2h-.3v-.9l-.4.2-.2-.7s-.4.6-.3.6c0,0-.5-.5-.5-.5,0,0,0,.4,0,.4l-.5-.3v.4s-.6-.2-.6-.2v.3s-.7,0-.7,0v.4c0,0-.3,0-.5,0-.2,0-.8,1.2-.5,1.1.4-.6,1-.7.8-.5-.2.2-.4.5-.2.8-.2-.3,1-.3,1-.3l-.2-.3s.6,0,.6-.1c-.5-.4.6-.4.9-.2.3.2.6,0,1,.4l.5.7h0Z"/>
  <path class="st3" d="M26.1,28.9c.6-.2,1.4-.5,1.8-.6.5,0,1,.2,1.4.5l.6.5c0,0,0,.4,0,.4-.1,0-.3,0-.3,0v-.3c-.4,1.1-2.1.6-1.8-.7l-.2.2h-.4s-.1.3-.1.3c0,0-.3-.2-.2-.1,0,0-.6.4-.6.3,0,0,.7-.5,0-.5h0Z"/>
  <path class="st3" d="M31.9,28.9c-.2.2-.5.4-.7.5-.2.1.6,0,.7,0,0,0-.7.7-.7.7,0,0,.6-.2.6-.3,0,0,.2.1.2.1l-.3.7.7-.4.5.2s.2-.4.2-.3c0,0,.4,0,.4,0,0,0,0-.4,0-.5,0,0,.2-.2.4-.3-.2,1.2,1,1.5,1.7.7,0-.2,0-.3-.1-.5h0s-.3.5-.3.5c0,0-.5-.3-.3-.3v-.5s-.2,0-.4-.2c0,0,0,0,0,0,.9,0,1.6.7,1.6.9,0,0,.2,0,.4,0,0,0,0,.1.1.2.3.2.7.4,1,.5.7.6,0-.4-.4-.6-.3-.2.5,0,.5.1s-.4-.5-.4-.5c-.2,0-1.5-.4-1.5-.6,0,0,.8.3.8.4v-.5l-1-.4h-.6s-.5,0-.5,0c0,0-.4.1-.3,0,0,0,.5-.3.7-.4.2,0-.9,0-1.5.3-.5.3.4-.7,1.2-.7s.9,0,1.1.2c.2,0,.7.2.8.5,0,0,.2-.2.2-.2v-.5c0,0-.1-.2-.2-.3,0,.2,0,.4-.1.5-.1-.4-.3-.8-.5-1.3,0,.6-.4.8-.4.1-.3,0-.6.2-1,.2-.2,0-.5.2-.8.3,0-.1,0-.3.1-.5,0,0-.2,0-.3,0,0-.1,0-.3.1-.5-.3.3-.6.6-1,.9,0,.2-.1.3-.2.5,0,0-.1,0-.1,0-.4.1-.1.4-.3.9h0Z"/>
  <path class="st3" d="M41.2,29.4c.2,0,.5.1.6.2.2.3.2,1.1-.2,2-.3.8-.8.8-.7,1.2.2,1.4-1,1.2-.9,1.6.2.5-.7,1.6-.5,4.3.2,2.1-.4,2.9-.8,3.1-.4.2-2.7.1-2.7.1,0,0,1.4-.4,2.7-1.6.2-.2-1.9.5-1.6.4,1.2-.5,1.7-1.3,1.7-1.3,0,.2-2,.4-1.6.3,0,0,.8-.4,1.6-1.3,0-.1-1.4.5-1.3.4.8-.9,1.7-1.5,1.4-1.4-.5.2-1.7.4-1.5.4.2,0,1.7-1.4,1.5-1.5-.2,0-1.9.8-1.5.6.3-.2,2.3-2.2,1.5-1.7-.8.5-2.4.9-1.7.5.7-.4,1.7-1.6,1.6-1.8l-1.6.5s2.3-2.1,2.1-2.4c-.2-.3-1,.3-1.1.1,0,0,.7-1,1.3-1.8-.9.5-2,1.2-2.7,1.5-.4.2-.5.2-.6.2,0,.6-.8,1.2-1.7,1.3-1.2.2-2.4-.5-2.7-1.3,0-.2,0-.3,0-.5,0,0,0,0,0,0,.1-.2-.3-1.7-1.5-1.6-.3,0-.7.7-.7.9-.2.5-.4,1.7-.4,2.3,0,.1,0-1,0-1.4-.5.5-1.4.6-2.3.2-1.1-.4-1.8-1.3-1.5-2,0,0-.1,0-.2-.1-.3-.5-.6-1.3-.6-1.3,0,0-.1.2,0,.2,0,0-.3-.5-.3-.5,0,0-.2.4-.3.2,0-.3-.3,0-.3,0v1.3s.3.3.3.3v.2s.3.4.3.4c0,0-.2.3-.1.3,0,0,.2.5.2.5,0,0-.2.2-.2.1,0,0-.5-.6-.5-.6,0,0,0-.7,0-.7,0,0-.2-.9-.2-.9v-.9c0,0,.2-.4.2-.4l.9-.5c.7.5,1,1.1,1.1,1.5,0,0,.2.1.3.2.5-.3,1.3-.4,2.1,0,.6.2,1.1.6,1.4,1,1.2-1.8,2.5-.8,3.2.2.3-.2.7-.4,1.1-.4.6,0,1.3,0,1.8.3.1,0,.2-.2.2-.2,0,0,.4,0,.5-.1l.3-.5.2.4c-.2.1-.6.5-.8.6.2.2.3.3.4.5.2,0,.5,0,.8,0,1.1-.6,1.9-1.1,2.6-1.7h-.8c-.2.2.5-.2.7-.9.1-.6-1.3,1.1-1.1.9.2-.2.7-1.8.5-1.6-.2.2-1,1-.9.8,1.1-2.2-1.1-4.3-.8-4,0,0,.3,2.8.2,2.1-.1-.6-1.1-2.9-2.9-4.1-3.9.8-6.8,1.5-9.1,2.5-.3.2-.5,0-.5-.2,0-1-1.6-4.1-2.2-4.1-2.9,0-5,2.1-7.9,3.1,7.1-5.3,13.3-8.2,19.3-10.9,7,1.4,10.4,1.4,13.6,2.2-1.6.2-3.8.2-5.6.8l-2.4,1.1-1.2.6.3,4c2.6,1.5,2.8,3.1,3.4,4.4-.4-.3-.9-1-.7-.8.2.2,0,3.1-.3,3.6h0Z"/>
  <path class="st3" d="M23.8,29.4l.2.2v1.1s-.4-.5-.4-.5c0,0-.2-.4-.2-.4l.3-.4h0Z"/>
  <path class="st3" d="M24.4,25.1v.3s.3.3.3.3h.2l-.5,2h-.3s.1-.5.2-.5c0,0-.9.6-.9.6,0,0,.3-1.1.3-1.1,0,0-.9,1-.8,1,0,0-.1-.4-.1-.4,0,0-.8,1-.8.9,0,0,1-2.2,1-2.2,0,0-1.5,1.4-1.5,1.3,0,0,.8-1.5.8-1.5,0,0-.8.4-.8.4,0,0,.7-1,.7-1,0,0,.9-.2.9-.2l.6-.3h.8c0,.1,0,.1,0,.1Z"/>
  <path class="st3" d="M32.5,33.4c.5,1-.8.7-1,.7,0-.1,0-.5,0-.5,0,0,.5-.5.5-.5h-.5c0,0,.1-.4.1-.4l-.2.2v-.9c-.2.8-.5,1.4-1.3,2.2.7,0,.5.5.5.6-.7.6-1.8.8-2,0l-.2-1.1-.3-.2c-.2.4.4,2,1,2.3.5.2,1.7-.2,2.2-.5,0,0,1.7-.7,1.8-1,.3-.5-.3-.7-.6-.8h0Z"/>
  <path class="st3" d="M28.4,32.4c-3,.7-2.9,3.2-2.8,3.5.1.2.2-2,2.5-2.5,0,0-.6-.3.3-1h0Z"/>
  <path class="st3" d="M32.9,34.6c1.6-.2,2.5.6,2.5.8.3.4,0,.8,0,1-.3.9-.4.7-.8,2-.3.8.4-2.5.1-3-.3-.5-1,.1-1.8-.8h0Z"/>
  <path class="st3" d="M26.4,35.8c-.2,0-1.2.6-1.5,2,.6.9.9.5.8.4-.1-.7-.4-1.1.7-2.4Z"/>
  <path class="st3" d="M36.4,36.2v.6c.1,0,.2.5.2.5v1.1s-.1.6-.1.6l-.2.8-.4.7-.5.6-.5.5-.5.4-.5.2-.8.3.9-.5.7-.5.5-.6.5-.7.5-.9.2-.9v-.9c.1,0,.2-.7.2-.7v-.7Z"/>
  <path class="st3" d="M30.6,38.5c1.3-.4,2.6-.7,3.6-1.3.2,1.8-2.3,4.3-2.6,4.4-.5.3,4.5-4.1-1-3.2Z"/>
  <path class="st3" d="M24.7,36.2l-.2.3v.2c0,0-.2.3-.2.3v.3c0,0-.1.3-.1.3v.4s0,.5,0,.5v.5c.1,0,.3.5.3.5l.2.5.2.4.3.4.3.3.3.2h-.2c0,0-.2-.2-.2-.2l-.3-.2-.2-.3-.2-.3v-.3c-.1,0-.3-.4-.3-.4l-.2-.5v-.4c0,0-.2-.5-.2-.5v-.7c0,0,.2-.4.2-.4l.2-.2.2-.3.3-.2Z"/>
  <path class="st3" d="M23.6,32.2c.8,2.1-1.1,3.3-.5,5.5,0,0-.2,1.5.6,2.7.5.8.6,1.2,1,1.3.7,0,.4,0,1.3.8.2.1.5.2,0,.2-2.5.4-3.1-2.7-3.3-3-.1-.3,0-1.9.2-1.8.2.1-.4-1.5-.4-1.5.2-1.7,1.3-2.2,1.2-4.2Z"/>
  <path class="st3" d="M16.1,24.3l-.3,1.1-.3-1h.6Z"/>
  <path class="st3" d="M15.8,26l.3,1.7-.4.4v-2Z"/>
  <path class="st3" d="M16,28l-.3.2v.7l.4-.3v-.5Z"/>
  <path class="st3" d="M16.1,28.8l-.4.2v.4h.4v-.7Z"/>
  <path class="st3" d="M15.7,29.6h.3c0,0,0,.5,0,.5l-.4.3v-.8Z"/>
  <path class="st3" d="M15.9,30.5c.2.3.4.6.6.9.2.4.4,1.1.5,1.3,0,.2.4,2.6.4,2.6h-.4s0-.6,0-.7c0,0-.5.7-.5.7,0,0-.3,0-.3,0,0,0,.4-.8.4-.8l-.8.8s.8-1.1.3-1c-.4.2-.3,1-.5,1h-.2c-.2,0,.3-1.1.5-1.5-.7-.2-.6,1.5-1,1.5h-.6l.2-1.8s.5-1.5.5-1.5c0,0,.8-1.3.8-1.3,0,0,.2-.1.2-.2h0Z"/>
  <path class="st0" d="M27.4,29.9c.9.3,1.4,1,1.2,1.5-.2.5-1.1.7-2,.4-.9-.3-1.4-1-1.2-1.5.2-.5,1.1-.7,2-.4Z"/>
  <path class="st0" d="M33.4,30.9c-1,0-1.6.7-1.3,1.3.2.6,1.2,1.1,2.2,1,1,0,1.6-.7,1.3-1.3-.2-.7-1.2-1.1-2.2-1Z"/>
  <path class="st3" d="M27.5,36.3c-.4,0-.6-.2-1.2,0-.1.7,0,1,.2,1.6,0-.8.5-1.3,1-1.7Z"/>
  <path class="st3" d="M21.7,47.5c.2-.3.6-.5.8-.4.2,0,.1.5-.1.8-.2.3-.7.5-.8.4-.2,0-.1-.5.1-.8h0Z"/>
  <path class="st3" d="M30.9,49.2c0-.4-.5-.7-.8-.6-.2,0-.4.4-.3.8,0,.4.4.7.7.7.3,0,.5-.5.3-.9h0Z"/>
  <path class="st3" d="M38.7,42.1l1,2.6-.4.5-3,1.9-1,1.3-.8.4s-1.3.1-1.3,0c0,0-1.8,2.4-1.7,2.4,0,0-1.1,1-1.1,1l1.9-5.5.5,1.5.2-1.9.5,1.2s1.8-.5,1.8-.5c0,0,1.7-1.5,1.7-1.5,0,0,0-2.2,0-2.3,0,0,.6,2,.6,2v-1.8c.1,0,.8,1.2.8,1.2,0,0-.3-2-.3-2,0,0,.5.6.5.6v-1.3h0Z"/>
  <path class="st3" d="M23.2,41.7c-.5,1.4-1.1,2.8-1.7,4.2.5-.2,1.4-1.9,2.5-2.3,1-.4-1.4.2-1.1,0,.2-.1.9-1.1.9-1.1l-.8.2c0-.4,0-.8.2-1.1h0Z"/>
  <path class="st3" d="M21.2,46.5c0,1.1-.2,1.4-.7,2.9,0-1,.2-2,.7-2.9Z"/>
  <path class="st3" d="M26.2,42.9c1.1,1,1,1.6,3.5,1.8,3.1-.7,4.1-1.5,5.9-2.5-.7,1.3-1.8,2-3.2,2.5-1.3.5-2.3.1-2.6.2-2,.8-3.8-.3-3.7-2.1h0Z"/>
  <path class="st3" d="M32.3,45.6c1.6-.2,2.2-1.7,4.7-3.3-2.8,2.9-1.5,3-2.6,3.3-2.7.5-2,.3-2.1,0Z"/>
  <path class="st3" d="M30.7,39.1c-.7,0-1.3-.2-1.9,0-.2.8-.1,1.5.2,2.2,0-1.3.2-2,1.8-2.3h0Z"/>
  <path class="st3" d="M22.7,42c-1.4.5-2.1.8-3.3,1.8.2-.4,0-.8.5-1.2.7-.5,2-.2,2.8-.7h0Z"/>
  <path class="st3" d="M24.7,42.8c1.3.4,1,1.4,1.7,1.5-.4-.1-.7-.2-1.1-.4-.4-.4,0-.6-.6-1.1h0Z"/>
  <path class="st3" d="M26.7,40.7c0,1.3.3,2.5,1.1,3,.2,0,.3,0,.5,0,.2,0,.2-.4.6,0,.4.4.7.4.7.4,0,.1.6,0,.9-.4.4-.5,1.2-.9,1-.8-1.3.5-2.6.5-3-.8,0-.3,0,.8,0,.8-.7.6-1.3-.7-1.8-2.1h0Z"/>
  <path class="st3" d="M32.1,31.8c1.1,1.2,1.9.9,2.8.9,0,.2-2.4.7-2.8-.9Z"/>
  <path class="st3" d="M25.6,30.4c1,1.3,1.8,1.2,2.7,1.3,0,.2-2.5.4-2.7-1.3Z"/>
  <path class="st3" d="M36.1,31.5c.4.1.4.2.4.5,0-.1.1-.3,0-.5,0,0-.3,0-.5,0h0Z"/>
  <path class="st0" d="M28.6,28.7c.2,0,.4.2.6.3l-.3.3s-.4-.1-.3,0v-.5h0Z"/>
  <path class="st0" d="M34.6,29.1v.5l.3.3.3-.5c-.2-.1-.4-.2-.6-.3h0Z"/>
  <path class="st0" d="M21.6,20.7c2.5-1,6.3-.7,9.1-.8,2.6-2.2,6.1-3.1,9.4-4-3.4,1.3-6.7,2.8-9.3,5-1.8-.4-5.6-.6-9.2-.1Z"/>
  <path class="st0" d="M37,22.2v.2s-.5.8-.5.8c-.2,0-.5-.2-.7-.2.2-.2.4-.4.5-.5.2,0,.5-.3.7-.3h0Z"/>
  <path class="st0" d="M36.7,23.1c.2,0,.3.2.5.3.2-.4.6-.5.9-.5-.4-.2-.9,0-1.4.2Z"/>
  <path class="st0" d="M25.5,49.6c.5,0,.9.2,1,.6.2,0,.4-.1.4-.3-.5-.4-.9-.4-1.4-.3h0Z"/>
  <path class="st1" d="M7.9,31.3c0-6.2,2.4-12.1,6.9-16.6,4.4-4.4,10.3-6.9,16.6-6.9,12.9,0,23.4,10.5,23.4,23.4s-10.5,23.4-23.4,23.4S7.9,44.3,7.9,31.3ZM14.2,14.1c-4.6,4.6-7.2,10.7-7.2,17.2,0,13.4,10.9,24.3,24.4,24.3s24.3-10.9,24.3-24.3S44.8,7,31.4,7s-12.6,2.5-17.2,7.1h0Z"/>
</svg>