<?xml version="1.0" encoding="UTF-8"?>
<svg id="_Слой_1" data-name="Слой_1" xmlns="http://www.w3.org/2000/svg" version="1.1" xmlns:xlink="http://www.w3.org/1999/xlink" viewBox="0 0 203 47">
  <!-- Generator: Adobe Illustrator 30.2.1, SVG Export Plug-In . SVG Version: 2.1.1 Build 1)  -->
  <defs>
    <style>
      .st0 {
        fill: #fff;
      }

      .st1 {
        fill: #ee7f1a;
      }

      .st2 {
        fill: url(#_Безымянный_градиент);
      }

      .st3 {
        fill: #24272a;
      }

      .st4 {
        fill: #e9d6bd;
      }
    </style>
    <linearGradient id="_Безымянный_градиент" data-name="Безымянный градиент" x1="23.31" y1="47.61" x2="23.31" y2="1.65" gradientTransform="translate(0 48) scale(1 -1)" gradientUnits="userSpaceOnUse">
      <stop offset="0" stop-color="#b2acc9"/>
      <stop offset=".26" stop-color="#afa9c7"/>
      <stop offset=".45" stop-color="#a5a0c0"/>
      <stop offset=".62" stop-color="#9691b5"/>
      <stop offset=".77" stop-color="#7f7da6"/>
      <stop offset=".91" stop-color="#636293"/>
      <stop offset="1" stop-color="#4d4e84"/>
    </linearGradient>
  </defs>
  <path class="st2" d="M23.33.39c12.59,0,22.86,10.3,22.86,22.98s-10.27,22.98-22.86,22.98S.43,36.06.43,23.37,10.74.39,23.33.39Z"/>
  <path class="st0" d="M4.13,36.03c1.3-.74,2.39-.91,2.39-.91l3.54-.08,1.9.37,1.01-.85,2.99-1.25,14.28.09,1.18,3.01,1.77.82,2.92.83,5.34-.55c-11.82,15.2-31.25,8.7-37.31-1.49v-.02l.02.02Z"/>
  <path class="st4" d="M16.99,18.29l.4-.54s6.94-2.56,8.56-2.42l1.33.61,2.54,2.11,1.08,2.21.4,4.86-.44,2.72-.04,1.29-.11,2.39-.28,1.37-2.72.78-.34.32-1.12.98-2.69,1.24-2.27.28-1.36-.35-.97-.09-.95-.3-1.12-1.47-1.05-1.33-.61-1.92.04-1.2-.21-1.45.65-2.21.3-.84-.11-1.01-.11-.44-.24-1.17-.26-.82-.07-.84.26-.37.61-.21.31-.38.6-1.78h0Z"/>
  <path class="st3" d="M10.95,35.44c-.92.68-1.44,1.36-2.72,2.85-.48.6-.49.61-1.28,1.5l.43.43c.32-.6.36-.61.85-1.37.8-1.24,1.76-2.53,2.72-3.41Z"/>
  <path class="st3" d="M11.31,35.36c-1,.97-1.56,1.89-3.08,4.46-.24.44-.18.27-.49.79l.46.46c.12-.28-.12.27.04-.12.8-1.76,2-4.22,3.08-5.58Z"/>
  <path class="st3" d="M7.47,36c.24-.2.48-.36.76-.48.52-.24,1.2-.4,1.96-.44-.48-.28-1.12-.44-1.96-.48h-.44c-1.16.16-1.96.44-3.45,1.21l.16.12c2.08-.44,2.84-.4,2.96.08h0Z"/>
  <path class="st3" d="M8.57,41.23l.51.46c.57-2,1.47-4.52,2.62-6.41-1,1.29-1.38,1.97-3.14,5.95Z"/>
  <path class="st3" d="M39.35,37.43l-1.47.11c-.4,0-.81-.17-1.53-.12-2.64.32-1.84-.52-4.96-1.08.08.2.24.56.32.8,3.92.44,2.56,3.07,6.04,1.91l1.48-.92,2.43-.66h-2.32v-.02Z"/>
  <path class="st3" d="M28.74,46.06l1.33-.38c1-2.85,1.01-5.38,1.33-8.79-.72,3.37-1.65,6.73-2.65,9.17Z"/>
  <path class="st3" d="M20.5,38.25c-.32-.48-.87-1.24-1.04-1.49-.2-.24-3.08,2.46-3.2,2.33-.08-.12-2.68,2.21-3.2,2.41-.52.15.81.06,1.02-.12,0,.16.06.56.06.56l2.56-1.44c-.11.08.12,1,.12,1-.6,1.44-1.63,2.37-2.32,2.89l-.42.34,3.57,1.28.57.11c.12-1.08.32-4.73.52-4.46.24.28,1.48-.65,1.32-.76.57.44,1.12.89,1.68,1.29-.4-1.33-.84-2.61-1.25-3.94h0Z"/>
  <path class="st3" d="M31.23,36.92c-.76,1.81-1.6,3.7-2.4,5.54-.8,1.81-1.13,2.48-1.86,3.93l1.22-.25c.32-.76.27-.71.64-1.55.92-2.49,1.8-5.22,2.4-7.67Z"/>
  <path class="st3" d="M31.11,36.65c-.44.64-.8,1.21-1.24,1.92-.24.76-.8,1.36-1.04,2.13-.08.12-.12.24-.12.4-1.2,1.85-1.98,3.67-2.98,5.48l.87-.11c.8-1.68,1.32-2.68,2.24-4.64.8-1.76,1.56-3.54,2.28-5.18Z"/>
  <path class="st3" d="M19.11,28.73c.28,0,.57,0,.84.04.32.19.68.36.96.6.32.2.8.08.96.32.12.24-2.24-.08-2.48-.44-.08-.16-.2-.36-.28-.52Z"/>
  <path class="st3" d="M25.23,27.98c1.12-.24.6.6.6.68-.52.04-.96.44-1.17.56-.16.08-.76.12-.8.08,0-.08-.6.32-.44.36.16.04-1.24.08-1.56.08-.36-.04,1.88-.92,1.88-.92.2-.28,1.08-.56,1.48-.84Z"/>
  <path class="st3" d="M28.35,19.7c.2.68.12.6-.16,1.08-.04.04.2,0,.28.16.04.04.52-.56-.12-1.24Z"/>
  <path class="st3" d="M20.63,17.38h.76l.32.04.44.04.41.16.4.2.32.24.32-.24.41-.25.4-.16.4-.04h.36l.76.04h-.8l-.27.04-.25.04-.32.08-.36.16-.24.2-.24.2-.12.24-.32-.28-.28-.2-.32-.19-.27-.12-.25-.08-.35-.04-.33-.04-.56-.04Z"/>
  <path class="st3" d="M22.07,16.97l.72.2.32.04.28.04.27-.08.72-.2-.84.17h-.33l-.32-.04-.27-.04-.57-.08Z"/>
  <path class="st3" d="M22.07,20.95l.2-1.13h-.28v-.89l-.4.2-.2-.65s-.36.56-.32.56c-.04,0-.52-.52-.48-.52-.04,0-.04.4-.04.4l-.48-.32.04.4-.6-.16.04.32-.72-.04.08.36s-.4.08-.6,0c-.16-.08-.76,1.16-.52,1.05.36-.6.95-.72.8-.52-.2.2-.36.48-.16.76-.2-.28.92-.32.92-.32l-.2-.28s.6-.04.56-.12c-.48-.4.56-.36.88-.16.32.24.6-.04,1,.4l.48.65h0Z"/>
  <path class="st3" d="M18.27,21.03c.57-.2,1.32-.52,1.72-.56.44.08,1,.16,1.32.44l.56.48c.08.08.04.36-.08.4-.11.04-.28-.04-.28-.04l-.04-.28c-.36,1.08-1.96.56-1.64-.64l-.2.2-.4-.04-.12.28c0,.08-.27-.16-.24-.12-.04-.04-.56.4-.6.32,0-.08.72-.44,0-.44h0Z"/>
  <path class="st3" d="M23.79,21.03c-.24.16-.52.36-.72.44-.2.12.6,0,.64,0-.04,0-.64.65-.64.65,0,0,.56-.24.56-.28,0,.04.16.12.16.12l-.32.65.64-.4.48.2s.24-.36.2-.32c.04-.04.4-.08.4,0,0-.08.04-.4,0-.52,0-.08.16-.2.4-.28-.16,1.12,1,1.49,1.6.72.08-.16,0-.32-.12-.52v.04l-.28.44s-.44-.28-.32-.28v-.44s-.24-.08-.36-.16c.04-.04.08-.04.08-.04.88.08,1.56.68,1.52.84,0,.04.16.04.36.08.08,0,.08.12.11.16.28.16.72.36.92.52.64.6-.08-.36-.4-.6-.28-.24.48,0,.48.12s-.36-.48-.4-.48c-.16,0-1.4-.4-1.4-.6,0,0,.8.32.8.36v-.44l-.96-.36-.6.04-.44.04s-.36.12-.32.04c0-.08.48-.28.68-.36.2-.04-.88.08-1.44.32-.52.28.4-.64,1.12-.64.6,0,.84.04,1.08.16.2.08.64.24.8.48,0,.04.16-.24.16-.24l-.04-.48c-.04-.08-.08-.19-.12-.32-.04.16-.08.36-.12.52-.12-.4-.32-.8-.48-1.21,0,.6-.36.73-.4.12-.32.08-.6.16-.92.24-.24.08-.52.2-.8.28.04-.12.08-.28.12-.44-.08.04-.16.08-.28.08.04-.12.08-.28.12-.44-.32.32-.6.6-.92.89-.04.16-.12.32-.2.44-.04.04-.12.04-.12.04-.36.12-.11.4-.32.84h.02Z"/>
  <path class="st3" d="M32.71,21.59c.16.08.44.12.6.2.24.28.24,1.05-.16,1.97-.32.81-.76.73-.68,1.13.2,1.32-1,1.16-.88,1.52.16.44-.68,1.57-.48,4.14.16,2.05-.36,2.77-.8,2.97-.4.2-2.6.12-2.6.12.08.04,1.36-.36,2.6-1.56.24-.24-1.84.48-1.55.36,1.16-.52,1.64-1.29,1.64-1.21,0,.16-1.93.4-1.52.32.08-.04.8-.36,1.48-1.21.08-.12-1.32.48-1.24.4.8-.89,1.6-1.49,1.36-1.36-.52.24-1.64.35-1.44.4.16,0,1.64-1.36,1.48-1.41-.16,0-1.8.73-1.48.57.32-.16,2.2-2.16,1.44-1.65-.8.52-2.28.89-1.64.52.65-.36,1.64-1.57,1.56-1.73l-1.56.44s2.16-2.01,2-2.29c-.16-.28-1,.28-1.03.12,0-.08.64-.92,1.2-1.68-.88.48-1.93,1.16-2.6,1.44-.4.16-.52.2-.6.2-.08.6-.72,1.13-1.64,1.21-1.16.16-2.32-.44-2.6-1.29-.04-.16-.04-.32-.04-.44-.04.04-.04.08-.04.04.11-.16-.28-1.6-1.48-1.52-.32.08-.64.68-.68.84-.16.52-.36,1.6-.4,2.25,0,.12-.08-.92-.04-1.37-.44.44-1.33.56-2.24.24-1.04-.36-1.68-1.24-1.44-1.92-.08-.04-.12-.08-.16-.12-.32-.52-.6-1.29-.6-1.29,0,0-.11.2-.08.2-.04,0-.32-.48-.32-.48,0,0-.24.4-.32.24-.08-.27-.32,0-.32,0l.04,1.29.28.28v.19s.28.4.28.36c0,.04-.16.32-.12.32-.04,0,.16.44.16.44,0,0-.24.16-.24.12,0,.04-.44-.56-.44-.56,0,0,.04-.65.08-.65-.04,0-.2-.84-.2-.84l-.08-.84.24-.4.88-.44c.64.52.92,1.05,1.08,1.44.04.08.16.12.28.16.48-.32,1.24-.36,2-.08.6.2,1.08.6,1.32,1,1.12-1.73,2.44-.8,3.08.16.28-.2.64-.36,1.08-.4.6-.08,1.25.04,1.68.28.12-.08.24-.16.24-.16,0,0,.36-.04.44-.12l.33-.44.19.36c-.24.12-.57.52-.76.6.16.16.28.28.4.48.24.04.48.04.76.04,1.04-.6,1.8-1.05,2.52-1.65l-.72.12c-.2.04.52-.32.64-.97.12-.6-1.24,1.08-1.03.84.2-.24.64-1.73.52-1.52-.16.24-1,1-.87.8,1.08-2.09-1.08-4.14-.72-3.89,0,0,.32,2.69.2,2.05-.12-.6-1.04-2.77-2.76-3.94-3.72.73-6.48,1.44-8.68,2.45-.28.16-.48,0-.44-.16.04-.92-1.52-3.94-2.09-3.98-2.76-.08-4.76,2.05-7.52,3.01,6.8-5.1,12.77-7.87,18.48-10.52,6.72,1.36,9.92,1.32,13,2.08-1.56.2-3.68.2-5.4.81l-2.28,1.08-1.12.6.32,3.89c2.48,1.49,2.68,2.97,3.24,4.25-.36-.28-.87-1-.68-.81.24.2-.04,3.01-.27,3.49h-.04Z"/>
  <path class="st3" d="M16.11,21.59l.2.24-.04,1.05s-.32-.48-.32-.52c0,.04-.16-.36-.16-.36l.32-.4h0Z"/>
  <path class="st3" d="M16.71,17.46l.04.32.24.32h.16l-.48,1.92-.28.04s.11-.48.16-.48c-.04,0-.84.56-.84.56,0,0,.28-1.05.28-1.08,0,.04-.84,1-.8,1-.04,0-.12-.36-.12-.36,0,0-.72.92-.72.89,0,.04.96-2.13.96-2.13,0,0-1.44,1.33-1.44,1.29,0,.04.72-1.41.72-1.41,0,0-.8.4-.76.4-.04,0,.64-.92.68-.97-.04.04.87-.16.87-.16l.57-.28.76.12h0Z"/>
  <path class="st3" d="M24.43,25.4c.48.92-.8.68-1,.65-.08-.12-.08-.44.04-.52,0-.04.44-.52.48-.52l-.44.08.12-.48-.2.16v-.89c-.2.81-.48,1.33-1.24,2.09.64,0,.52.44.48.6-.68.56-1.72.81-1.88.08l-.24-1.05-.32-.16c-.16.36.36,1.93.96,2.17.52.2,1.6-.16,2.08-.52,0,0,1.6-.64,1.76-.92.32-.44-.28-.64-.6-.76h0Z"/>
  <path class="st3" d="M20.47,24.4c-2.84.68-2.8,3.09-2.72,3.41.12.24.2-1.89,2.4-2.45.04,0-.6-.28.32-.96h0Z"/>
  <path class="st3" d="M24.79,26.57c1.56-.16,2.44.56,2.36.73.28.36.04.81,0,.97-.28.89-.36.68-.76,1.97-.27.81.4-2.41.12-2.92-.28-.52-.92.12-1.71-.73h0Z"/>
  <path class="st3" d="M18.59,27.73c-.16-.08-1.12.56-1.4,1.97.6.84.88.48.72.36-.12-.68-.36-1.08.68-2.33Z"/>
  <path class="st3" d="M28.11,28.14l.12.59.04.49v.56l-.04.49-.09.6-.24.76-.36.68-.52.59-.51.49-.52.36-.48.24-.8.32.88-.52.72-.52.48-.56.44-.64.49-.89.24-.84.12-.85.04-.67v-.68Z"/>
  <path class="st3" d="M22.63,30.35c1.2-.36,2.48-.64,3.44-1.21.24,1.76-2.24,4.09-2.52,4.25-.44.28,4.32-3.94-.92-3.05Z"/>
  <path class="st3" d="M16.91,28.1l-.2.28-.08.16-.16.28-.08.32-.04.32.04.36.04.48.12.48.2.52.16.44.16.36.27.4.25.25.32.2-.24-.08-.24-.16-.25-.2-.24-.32-.16-.28-.11-.32-.2-.36-.16-.52-.08-.4-.08-.44v-.36l.08-.27.08-.36.16-.24.16-.28.28-.24Z"/>
  <path class="st3" d="M15.9,24.24c.76,2.05-1.08,3.13-.52,5.34,0,.04-.19,1.48.57,2.61.52.76.56,1.13.96,1.21.64.08.36,0,1.24.76.16.12.52.16-.04.24-2.44.36-3-2.61-3.12-2.92-.12-.32-.04-1.84.16-1.73.19.12-.4-1.48-.4-1.48.16-1.65,1.24-2.09,1.16-4.02Z"/>
  <path class="st3" d="M8.7,16.65l-.27,1.05-.33-.97.6-.08Z"/>
  <path class="st3" d="M8.38,18.3l.28,1.6-.41.36.12-1.97Z"/>
  <path class="st3" d="M8.59,20.23l-.33.17v.64l.36-.32-.04-.49Z"/>
  <path class="st3" d="M8.67,20.95l-.36.24v.4h.36v-.64Z"/>
  <path class="st3" d="M8.3,21.75l.32.08.04.41-.36.32v-.81Z"/>
  <path class="st3" d="M8.54,22.64c.16.28.4.57.57.89.16.4.4,1.05.44,1.24.08.2.36,2.53.36,2.53h-.4s.08-.6.08-.64c0,.04-.48.64-.48.64,0,0-.32.08-.32.04,0,.04.36-.76.36-.76l-.76.73s.72-1.08.28-.92c-.4.16-.28.92-.52.92h-.24c-.16,0,.32-1.08.52-1.44-.68-.2-.6,1.44-.92,1.44h-.56l.16-1.76s.48-1.44.48-1.49c0,.04.72-1.21.72-1.21.08-.08.16-.12.24-.2h-.03Z"/>
  <path class="st0" d="M19.55,22.08c.84.28,1.33.97,1.12,1.48-.2.48-1.04.68-1.88.41-.84-.28-1.36-.97-1.16-1.49.24-.48,1.08-.68,1.92-.4Z"/>
  <path class="st0" d="M25.23,22.96c-.92.08-1.52.68-1.28,1.29.24.6,1.16,1.05,2.08.92.96-.08,1.52-.65,1.28-1.24-.19-.65-1.16-1.05-2.08-.97Z"/>
  <path class="st3" d="M19.67,28.22c-.36-.08-.6-.16-1.16.08-.12.64.08,1,.16,1.52.08-.76.48-1.25,1-1.6Z"/>
  <path class="st3" d="M14.11,38.94c.24-.32.6-.48.8-.36.16.08.12.44-.12.76-.24.32-.64.48-.8.36-.2-.08-.12-.44.12-.76h0Z"/>
  <path class="st3" d="M22.91,40.62c-.08-.36-.44-.65-.72-.56-.24.04-.4.4-.28.76.08.4.4.68.68.64.28-.08.44-.44.32-.84h0Z"/>
  <path class="st3" d="M30.39,33.76l.96,2.49-.4.44-2.84,1.84-.92,1.29-.8.4s-1.24.12-1.24.08c0,.04-1.68,2.29-1.64,2.29-.04,0-1.04,1-1.04,1l1.84-5.3.44,1.49.2-1.85.52,1.17s1.72-.52,1.76-.52c-.04,0,1.64-1.4,1.64-1.44,0,.04-.04-2.16-.04-2.21,0,.04.57,1.89.57,1.89l.11-1.68.64,1.17s-.32-1.89-.27-1.89c-.04,0,.52.6.52.6v-1.24h0Z"/>
  <path class="st3" d="M15.55,33.4c-.52,1.36-1.04,2.73-1.6,4.06.52-.2,1.32-1.81,2.36-2.17,1-.4-1.32.16-1.08.08.24-.12.88-1.05.88-1.05l-.72.16c.04-.36.08-.73.16-1.09h0Z"/>
  <path class="st3" d="M13.59,38.01c.08,1.08-.2,1.37-.64,2.81.04-1,.16-1.97.64-2.81Z"/>
  <path class="st3" d="M18.43,34.52c1.08.97,1,1.57,3.36,1.76,2.96-.65,3.88-1.44,5.68-2.41-.68,1.24-1.76,1.97-3.04,2.45s-2.24.12-2.48.24c-1.88.8-3.64-.28-3.52-2.05h0Z"/>
  <path class="st3" d="M24.19,37.17c1.48-.2,2.12-1.65,4.52-3.21-2.64,2.81-1.4,2.85-2.48,3.21-2.56.48-1.92.28-2.04,0Z"/>
  <path class="st3" d="M22.7,30.91c-.64,0-1.2-.2-1.84.04-.2.81-.12,1.44.16,2.13.04-1.21.24-1.89,1.68-2.17h0Z"/>
  <path class="st3" d="M15.03,33.72c-1.33.52-2.01.81-3.16,1.76.16-.36.04-.81.48-1.13.68-.52,1.96-.2,2.69-.65h0Z"/>
  <path class="st3" d="M16.91,34.48c1.24.4,1,1.36,1.6,1.44-.36-.12-.64-.16-1.04-.36-.36-.36,0-.6-.57-1.08h0Z"/>
  <path class="st3" d="M18.83,32.43c.04,1.24.27,2.37,1.04,2.85.16.04.32.08.48,0,.24-.08.2-.4.56-.04.36.4.72.36.72.36,0,.12.57-.08.88-.4.4-.52,1.12-.89.92-.81-1.24.44-2.52.44-2.88-.73-.08-.28,0,.76.04.76-.68.56-1.24-.68-1.76-2.01h0Z"/>
  <path class="st3" d="M24.07,23.84c1.08,1.13,1.8.88,2.69.88.08.16-2.32.68-2.69-.88Z"/>
  <path class="st3" d="M17.79,22.48c.92,1.29,1.68,1.16,2.56,1.29.04.16-2.4.36-2.56-1.29Z"/>
  <path class="st3" d="M27.91,23.6c.4.12.4.2.4.48.04-.12.12-.32.08-.44-.08,0-.28,0-.48-.04h0Z"/>
  <path class="st0" d="M20.67,20.91c.24.04.4.16.6.28l-.28.28s-.36-.12-.32-.08v-.48h0Z"/>
  <path class="st0" d="M26.45,21.25v.45l.33.25.29-.43c-.19-.12-.37-.23-.62-.27h0Z"/>
  <path class="st0" d="M13.98,13.21c2.44-.97,6.04-.72,8.68-.8,2.48-2.13,5.84-3.01,9.04-3.86-3.24,1.29-6.44,2.73-8.88,4.78-1.72-.36-5.36-.56-8.84-.12Z"/>
  <path class="st0" d="M28.76,14.65l-.04.24-.48.73c-.2,0-.44-.16-.68-.16.16-.2.36-.36.52-.48.16-.08.44-.28.68-.32h0Z"/>
  <path class="st0" d="M28.39,15.49c.16.08.32.2.44.32.2-.36.57-.44.87-.48-.36-.16-.87-.04-1.32.16Z"/>
  <path class="st0" d="M17.67,40.94c.44.04.84.19.92.56.24-.08.36-.12.4-.28-.44-.4-.87-.36-1.32-.28h0Z"/>
  <path class="st1" d="M.87,23.42c0-6.01,2.34-11.67,6.6-15.94C11.71,3.22,17.35.87,23.33.87c12.37,0,22.42,10.11,22.42,22.55s-10.06,22.54-22.42,22.54S.87,35.84.87,23.42ZM6.86,6.87C2.43,11.3,0,17.18,0,23.42c0,12.91,10.47,23.42,23.34,23.42s23.3-10.5,23.3-23.42S36.19,0,23.34,0c-6.21,0-12.06,2.44-16.48,6.86h0Z"/>
  <path class="st0" d="M60.18,21.2h1.39c1.29,0,1.61-.56,1.76-1.03.12-.36.17-.85.32-2.22.07-.64.12-1.29.32-2,.17-.58.39-1.05.97-1.44.56-.36,1.12-.44,1.63-.44.32,0,.51.03.78.15v2.15h-.19c-.36,0-.9.04-1.04,1.15-.15,1.05-.12,1.32-.26,2.17-.1.59-.25,1.24-.73,1.76-.15.17-.51.51-1.12.66v.07c.8.1,1.63.56,2.07,1.49.15.29.42.98.51,2.53.07,1.13.1,1.76.32,2.15.24.42.56.46.83.46h.1v2.14c-.25.12-.42.15-.73.15-.93,0-1.94-.2-2.51-1.29-.17-.36-.39-1.07-.58-3.59-.05-.61-.1-1.81-.68-2.37-.49-.46-1.25-.46-1.73-.46h-1.39v7.57h-2.77V14.2h2.77v7Z"/>
  <path class="st0" d="M75.74,19.27c1.55,1.54,1.65,4.3,1.65,5.35s-.1,3.84-1.65,5.37c-.75.74-1.9,1.22-3.26,1.22-1.12,0-2.41-.39-3.26-1.2-1.34-1.27-1.71-3.69-1.71-5.4,0-2.15.54-4.25,1.71-5.37.73-.71,1.93-1.2,3.34-1.2,1.48,0,2.55.61,3.19,1.22h0ZM71.06,20.64c-.64.78-.83,2.17-.83,4.05,0,.39,0,2.85.8,3.88.26.35.71.68,1.44.68s1.15-.35,1.39-.66c.64-.81.8-2.78.8-3.98,0-1.27-.12-3.13-.8-3.98-.39-.49-.83-.64-1.41-.64s-.97.15-1.39.64Z"/>
  <path class="st0" d="M80.9,18.27v5.13h3.44v-5.13h2.53v12.7h-2.53v-5.52h-3.44v5.52h-2.53v-12.7h2.53Z"/>
  <path class="st0" d="M97.38,26.77c-.24,1.46-.58,2.59-1.51,3.39-.75.68-1.87,1.05-3.02,1.05-1.55,0-2.65-.66-3.29-1.27-1.68-1.68-1.73-4.74-1.73-5.42,0-2.91,1-4.56,1.97-5.4,1.05-.9,2.24-1.07,3.16-1.07.85,0,1.8.15,2.63.78,1.32,1,1.65,2.76,1.73,3.74l-2.39.32c-.04-.58-.22-1.71-.65-2.27-.22-.27-.61-.61-1.29-.61-.64,0-1.1.29-1.39.58-.85.85-1.04,2.42-1.04,3.95,0,2.17.36,3.27.85,3.94.34.49.78.78,1.44.78.61,0,1.17-.25,1.48-.66.39-.49.58-1.49.66-2.13l2.39.29h0Z"/>
  <path class="st0" d="M99.02,18.27l2.85,6.72h.04l2.26-6.72h2.29l-3.22,9.38c-.29.86-.8,2.07-1.48,2.74-.49.44-1.24.86-2.39.86-.56,0-1.1-.12-1.26-.15v-2.1c.32.12.58.15.95.15.34,0,.9-.05,1.32-.36.19-.15.36-.39.46-.71l-4.41-9.79h2.58Z"/>
  <path class="st0" d="M114.09,18.27v12.7h-2.54v-10.65h-2.51c-.04,1.83-.04,2.64-.19,4.1-.19,2.2-.44,4.81-1.8,5.94-.44.36-1.14.68-2.05.68-.26,0-.88-.04-1.12-.07v-1.96c.88.15,1.44-.24,1.78-.68.43-.56.68-1.52.85-3.52.07-.71.19-2.27.19-5.96v-.58h7.39Z"/>
  <path class="st0" d="M118.07,18.27v5.01h1.68c.9,0,2.41.04,3.48.97.9.78,1.12,1.76,1.12,2.74,0,1.59-.51,2.49-1,2.98-.46.46-1.34,1-2.7,1h-5.11v-12.7h2.54ZM118.07,29.06h1.87c.65,0,1.09-.25,1.34-.49.49-.46.49-1.13.49-1.42,0-.56-.12-1.1-.58-1.52-.51-.46-1.1-.46-1.68-.46h-1.44v3.88Z"/>
  <path class="st0" d="M130.63,18.27v2.06h-2.69v10.64h-2.54v-10.64h-2.83v-2.06h8.06Z"/>
  <path class="st0" d="M135.05,18.27l3.48,12.7h-2.55l-.8-3.08h-3.44l-.8,3.08h-2.38l3.77-12.7h2.73ZM133.5,20.88l-1.26,5.05h2.55l-1.29-5.05Z"/>
  <path class="st0" d="M141.17,18.27v5.13h3.43v-5.13h2.54v12.7h-2.54v-5.52h-3.43v5.52h-2.54v-12.7h2.54Z"/>
  <path class="st0" d="M155.73,18.27v2.06h-2.7v10.64h-2.54v-10.64h-2.83v-2.06h8.07Z"/>
  <path class="st0" d="M166.65,14.22v16.75h-2.73v-14.53h-4.82v14.53h-2.73V14.22h10.27Z"/>
  <path class="st0" d="M177.54,18.27v12.7h-2.54v-10.65h-2.51c-.04,1.83-.04,2.64-.19,4.1-.19,2.2-.44,4.81-1.8,5.94-.44.36-1.14.68-2.04.68-.27,0-.88-.04-1.12-.07v-1.96c.88.15,1.44-.24,1.78-.68.44-.56.68-1.52.85-3.52.08-.71.19-2.27.19-5.96v-.58h7.39Z"/>
  <path class="st0" d="M181.53,18.27v5.03h1.8c.1-1.52.73-3.17,1.63-4.05.71-.68,1.83-1.2,3.24-1.2,1.49,0,2.48.61,3.09,1.22,1.55,1.56,1.65,4.25,1.65,5.35s-.1,3.81-1.65,5.37c-.58.58-1.61,1.22-3.14,1.22s-2.63-.64-3.19-1.2c-1-.95-1.68-2.93-1.68-4.66h-1.75v5.62h-2.54v-12.7h2.54l-.02-.02ZM186.73,20.66c-.58.78-.8,2.13-.8,4.03,0,2.74.64,3.64.78,3.86.27.36.71.71,1.41.71s1.1-.35,1.36-.68c.07-.07.78-1.05.78-3.95,0-.71-.04-3.06-.78-3.98-.39-.49-.85-.64-1.39-.64s-.96.12-1.36.66Z"/>
  <path class="st0" d="M203,26.77c-.25,1.46-.58,2.59-1.51,3.39-.76.68-1.87,1.05-3.02,1.05-1.55,0-2.65-.66-3.29-1.27-1.68-1.68-1.73-4.74-1.73-5.42,0-2.91,1-4.56,1.97-5.4,1.05-.9,2.24-1.07,3.16-1.07.85,0,1.8.15,2.63.78,1.32,1,1.65,2.76,1.73,3.74l-2.38.32c-.05-.58-.22-1.71-.66-2.27-.22-.27-.61-.61-1.29-.61-.64,0-1.1.29-1.39.58-.85.85-1.04,2.42-1.04,3.95,0,2.17.36,3.27.85,3.94.35.49.78.78,1.44.78.61,0,1.17-.25,1.48-.66.39-.49.58-1.49.65-2.13l2.39.29h0Z"/>
</svg>