<?xml version="1.0" encoding="UTF-8"?>
<svg id="_Слой_1" data-name="Слой_1" xmlns="http://www.w3.org/2000/svg" version="1.1" viewBox="0 0 175 35">
  <!-- Generator: Adobe Illustrator 30.2.1, SVG Export Plug-In . SVG Version: 2.1.1 Build 1)  -->
  <defs>
    <style>
      .st0 {
        fill: #fff;
      }
    </style>
  </defs>
  <path class="st0" d="M132.2,15.32v8.97h-2.32v-6.8h-3.57v6.8h-2.32v-8.97h8.21Z"/>
  <path class="st0" d="M139.54,15.07c1.21,0,2.24.46,3.1,1.37.85.91,1.28,2.04,1.28,3.36s-.43,2.45-1.28,3.36c-.86.91-1.89,1.37-3.1,1.37s-2.23-.44-2.91-1.31v4.65h-2.32v-12.56h2.32v1.06c.68-.87,1.65-1.31,2.91-1.31ZM137.34,21.62c.47.47,1.06.71,1.78.71s1.31-.24,1.79-.71c.47-.47.71-1.08.71-1.82s-.24-1.35-.71-1.82c-.47-.47-1.07-.71-1.79-.71s-1.31.24-1.78.71c-.47.47-.7,1.08-.7,1.82s.23,1.35.7,1.82Z"/>
  <path class="st0" d="M152.38,15.32h2.32v8.97h-2.32v-1.06c-.69.87-1.67,1.31-2.93,1.31s-2.22-.46-3.08-1.37c-.85-.91-1.28-2.04-1.28-3.36s.43-2.45,1.28-3.36c.86-.91,1.88-1.37,3.08-1.37,1.26,0,2.23.44,2.93,1.31v-1.06ZM148.11,21.62c.47.47,1.06.71,1.78.71s1.31-.24,1.79-.71c.47-.47.71-1.08.71-1.82s-.24-1.35-.71-1.82c-.47-.47-1.07-.71-1.79-.71s-1.31.24-1.78.71c-.47.47-.7,1.08-.7,1.82s.23,1.35.7,1.82Z"/>
  <path class="st0" d="M163.26,19.7c.84.41,1.26,1.09,1.26,2.05,0,.75-.26,1.37-.78,1.84-.52.47-1.26.71-2.22.71h-4.72v-8.97h4.36c.95,0,1.68.23,2.2.7.52.47.78,1.08.78,1.83s-.29,1.41-.88,1.85h0ZM160.94,17.22h-1.98v1.61h1.98c.66,0,.99-.27.99-.81s-.33-.81-.99-.81ZM161.25,22.33c.67,0,1.01-.29,1.01-.86,0-.25-.09-.45-.27-.59-.18-.14-.43-.22-.74-.22h-2.28v1.67h2.28Z"/>
  <path class="st0" d="M173.62,23.17c-.92.91-2.05,1.37-3.38,1.37s-2.45-.46-3.37-1.37c-.92-.91-1.37-2.04-1.37-3.36s.46-2.45,1.37-3.36c.92-.91,2.04-1.37,3.37-1.37s2.45.46,3.38,1.37c.92.91,1.38,2.04,1.38,3.36s-.46,2.45-1.38,3.36ZM168.51,21.58c.46.47,1.04.7,1.73.7s1.27-.23,1.74-.7c.47-.47.7-1.06.7-1.78s-.23-1.31-.7-1.78c-.47-.47-1.05-.7-1.74-.7s-1.27.23-1.73.7c-.46.47-.69,1.06-.69,1.78s.23,1.31.69,1.78Z"/>
  <path class="st0" d="M25.9,25.02c-6.05-6.05-15.91-6.05-21.97,0l-3.93-3.93c8.22-8.22,21.6-8.22,29.83,0l-3.93,3.93h0Z"/>
  <path class="st0" d="M25.19,34.32c-5.4,0-10.8-2.05-14.91-6.16l3.93-3.93c6.06,6.05,15.91,6.05,21.97,0l3.93,3.93c-4.11,4.11-9.51,6.16-14.91,6.16h0Z"/>
  <path class="st0" d="M22.07,12.94c3.58,0,6.47-2.9,6.47-6.47S25.64,0,22.07,0s-6.47,2.9-6.47,6.47,2.9,6.47,6.47,6.47Z"/>
  <path class="st0" d="M81.89,9.98h-1.32c-8.09,0-15.16,6.97-15.16,15.42v1.4h-1.59v4.67h20.38v-4.67h-2.3V9.98ZM75.02,16.39c.78-.56,1.49-.9,2.16-1.17v11.58h-6.58c.11-5.3,1.52-8.33,4.42-10.42h0Z"/>
  <path class="st0" d="M56.02,10.05v9.32c-1.29.33-2.5.49-3.53.53h-.03c-.69-.03-1.45-.1-2.26-.25-.74-.13-1.27-.78-1.27-1.53v-8.13h-1.19s-3.52,0-3.52,0v8.87c0,1.77.89,3.24,2.2,4.25,1.46,1.12,3.68,1.46,5.6,1.46,1.52,0,2.96-.21,4-.42v7.29h4.88V10.09l-4.88-.04Z"/>
  <path class="st0" d="M100.24,20.73c.21-.16.41-.32.61-.5,2.75-2.41,4.19-5.78,4.31-10h-4.8c-.1,2.8-.96,4.89-2.65,6.38-1.64,1.45-3.81,2.12-5.71,2.43v-8.81h-4.88v21.19h4.88v-7.55c1.19-.15,2.5-.41,3.83-.85l5.09,8.4h5.82l-6.49-10.7h0Z"/>
  <path class="st0" d="M115.91,8.27h-.54v24.51h.54V8.27Z"/>
</svg>